<?xml version="1.0" encoding="utf-8"?>
<!-- Generator: Adobe Illustrator 18.0.0, SVG Export Plug-In . SVG Version: 6.00 Build 0)  -->
<!DOCTYPE svg PUBLIC "-//W3C//DTD SVG 1.1//EN" "http://www.w3.org/Graphics/SVG/1.1/DTD/svg11.dtd">
<svg version="1.1" id="Layer_1" xmlns="http://www.w3.org/2000/svg" xmlns:xlink="http://www.w3.org/1999/xlink" x="0px" y="0px"
	 viewBox="0 0 21.8 15.5" enable-background="new 0 0 21.8 15.5" xml:space="preserve">
<g>
	<path fill="#FFFFFF" d="M17,7.6C16.1,8,15.1,8.5,14.1,9l1,2.1l2.1,4.3h3.4L17,7.6z M16.2,5.8l-2-4.3c-0.2-0.5-0.6-0.9-1-1.2
		c-0.4-0.2-0.7-0.4-1-0.3c-0.3,0-0.6,0.2-1,0.4c-0.5,0.3-0.9,0.7-1.2,1.1L0,15.5h3.4l0,0c6.6-7,18.4-9.9,18.4-9.9
		C19.8,5.4,17.9,5.5,16.2,5.8z M8.3,8.7L11.7,4L13,6.6C11.2,7.2,9.7,7.9,8.3,8.7z"/>
</g>
</svg>
