<?xml version="1.0" encoding="utf-8"?>
<!-- Generator: Adobe Illustrator 18.0.0, SVG Export Plug-In . SVG Version: 6.00 Build 0)  -->
<!DOCTYPE svg PUBLIC "-//W3C//DTD SVG 1.1//EN" "http://www.w3.org/Graphics/SVG/1.1/DTD/svg11.dtd">
<svg version="1.1" id="Layer_1" xmlns="http://www.w3.org/2000/svg" xmlns:xlink="http://www.w3.org/1999/xlink" x="0px" y="0px"
	 viewBox="0 0 195.9 59.1" enable-background="new 0 0 195.9 59.1" xml:space="preserve">
<g>
	<path fill="#068643" d="M38.5,58.7c-9.9,0-38.5-8-38.5-17.9C0,31,28.6,22.9,38.5,22.9c9.9,0,17.9,8,17.9,17.9
		C56.4,50.7,48.4,58.7,38.5,58.7"/>
	<path fill="#BED731" d="M29.7,29.7c-6.4-3.9-21.9-20.4-18-26.9c3.9-6.4,25.7-0.3,32.1,3.6c6.4,3.9,8.5,12.3,4.6,18.7
		C44.5,31.5,36.1,33.6,29.7,29.7"/>
	<path fill="#034732" d="M24.3,25.3c2.1,1.9,4,3.5,5.4,4.3c6.2,3.8,14.3,2,18.4-4c-2.8-1.7-6-2.8-9.5-2.8
		C35.3,22.9,29.9,23.8,24.3,25.3"/>
	<path fill="#575B5E" d="M80.3,20.8c0-1.1-0.4-2-1.1-2.8c-0.7-0.7-1.8-1.1-3.1-1.1h-5.8v7.6h5.8c0.8,0,1.5-0.1,2.1-0.4
		c0.5-0.2,1-0.6,1.3-0.9c0.3-0.4,0.6-0.8,0.7-1.2C80.3,21.6,80.3,21.1,80.3,20.8 M70.3,13.4H76c0.3,0,0.7,0,1.1-0.1
		c0.4-0.1,0.7-0.2,1.1-0.5c0.3-0.2,0.6-0.5,0.8-0.9c0.2-0.4,0.3-0.9,0.3-1.5c0-0.8-0.3-1.5-0.8-2c-0.6-0.5-1.3-0.7-2.2-0.7h-5.9
		V13.4z M80.9,15c0.7,0.3,1.2,0.6,1.7,1c0.5,0.4,0.9,0.9,1.2,1.5c0.3,0.5,0.5,1.1,0.7,1.7c0.2,0.6,0.2,1.2,0.2,1.9
		c0,1.1-0.2,2.1-0.7,3c-0.4,0.9-1,1.7-1.8,2.4c-0.7,0.7-1.6,1.2-2.6,1.5c-1,0.4-2.1,0.5-3.2,0.5H68c-0.7,0-1.3-0.2-1.5-0.5
		c-0.3-0.3-0.4-0.8-0.4-1.5V5.8c0-0.7,0.1-1.2,0.4-1.5C66.7,4,67.2,3.8,68,3.8l8.1,0c1.1,0,2.1,0.1,3,0.4c0.9,0.2,1.7,0.6,2.4,1.1
		c0.7,0.5,1.2,1.1,1.6,1.9c0.4,0.8,0.6,1.7,0.6,2.8c0,1.1-0.3,2-0.8,2.9c-0.5,0.9-1.2,1.5-2,2V15z"/>
	<path fill="#575B5E" d="M97,19.8h-3.4c-0.4,0-0.8,0-1.3,0.1c-0.5,0-0.9,0.2-1.3,0.4c-0.4,0.2-0.7,0.5-1,0.9c-0.3,0.4-0.4,1-0.4,1.7
		c0,1,0.3,1.7,1,2.1c0.7,0.4,1.6,0.6,2.7,0.6c0.2,0,0.4,0,0.7,0c0.3,0,0.6,0,0.9-0.1c0.3,0,0.7-0.1,1-0.2c0.4-0.1,0.7-0.2,1-0.3
		V19.8z M101.2,26.4c0,0.6-0.2,0.9-0.7,1.2c-0.5,0.2-1.1,0.4-1.7,0.6c-0.6,0.2-1.2,0.3-1.8,0.4c-0.6,0.1-1.3,0.2-1.9,0.2
		c-0.6,0-1.2,0.1-1.8,0.1c-1.5,0-2.8-0.2-3.8-0.5c-1-0.3-1.8-0.7-2.4-1.3c-0.6-0.5-1-1.1-1.2-1.9c-0.2-0.7-0.4-1.5-0.4-2.3
		c0-0.8,0.1-1.6,0.4-2.4c0.3-0.8,0.7-1.4,1.3-2c0.6-0.6,1.4-1,2.4-1.4c1-0.3,2.2-0.5,3.6-0.5h3.9v-0.6c0-0.4-0.1-0.9-0.1-1.2
		c-0.1-0.4-0.3-0.7-0.5-1c-0.3-0.3-0.6-0.5-1.1-0.6c-0.5-0.2-1.1-0.2-1.8-0.2c-0.8,0-1.7,0.1-2.6,0.2c-0.9,0.1-1.7,0.3-2.3,0.5
		c-0.3,0.1-0.4,0.1-0.6,0c-0.1-0.1-0.2-0.2-0.2-0.4l-0.5-2c-0.1-0.4,0-0.6,0.3-0.7c1-0.4,2.1-0.6,3.2-0.8c1.2-0.2,2.3-0.2,3.3-0.2
		c2.4,0,4.2,0.5,5.4,1.6c1.1,1.1,1.7,2.6,1.7,4.7V26.4z"/>
	<path fill="#575B5E" d="M110.5,13.1c-0.3,0-0.6,0-1.1,0c-0.5,0-1,0.1-1.7,0.2v14.5c0,0.3,0,0.4-0.1,0.5c-0.1,0.1-0.3,0.1-0.5,0.1
		h-2.7c-0.2,0-0.4,0-0.5-0.1c-0.1-0.1-0.2-0.2-0.2-0.5v-15c0-0.8,0.2-1.5,0.5-2c0.3-0.5,0.9-0.8,1.9-1c0.2,0,0.5-0.1,0.9-0.1
		c0.4,0,0.8-0.1,1.3-0.1c0.4,0,0.9,0,1.3-0.1c0.4,0,0.8,0,1.1,0c1.5,0,2.9,0.2,4,0.5c1.1,0.3,2.1,0.8,2.8,1.6
		c0.7,0.7,1.3,1.6,1.6,2.8c0.3,1.1,0.5,2.5,0.5,4.1v9.3c0,0.3,0,0.4-0.1,0.5c-0.1,0.1-0.3,0.1-0.5,0.1h-2.7c-0.2,0-0.4,0-0.5-0.1
		c-0.1-0.1-0.2-0.2-0.2-0.5v-9.3c0-0.9-0.1-1.7-0.2-2.4c-0.1-0.7-0.4-1.2-0.8-1.7c-0.4-0.4-0.9-0.8-1.5-1
		C112.3,13.2,111.4,13.1,110.5,13.1"/>
	<path fill="#575B5E" d="M130,25.2c0.8,0,1.5-0.1,2.3-0.3c0.7-0.2,1.4-0.4,1.9-0.6c0.3-0.1,0.4-0.1,0.5-0.1c0.1,0,0.2,0.2,0.3,0.4
		l0.9,2c0.2,0.4,0.2,0.7-0.2,0.9c-1,0.5-2,0.9-3.1,1.1c-1.1,0.2-2.1,0.3-3.1,0.3c-2.6,0-4.6-0.8-6-2.4c-1.4-1.6-2.1-4-2.1-7.1
		c0-1.5,0.2-2.8,0.6-4c0.4-1.2,1-2.2,1.7-3.1c0.7-0.9,1.6-1.5,2.7-2c1-0.5,2.2-0.7,3.5-0.7c1,0,1.9,0.1,2.8,0.3
		c0.9,0.2,1.7,0.5,2.5,0.9c0.2,0.1,0.3,0.2,0.4,0.3c0,0.1,0,0.3-0.1,0.5l-0.9,2.1c-0.1,0.2-0.2,0.3-0.3,0.3c-0.1,0.1-0.3,0-0.6-0.1
		c-0.6-0.2-1.1-0.4-1.8-0.5c-0.6-0.2-1.3-0.2-1.9-0.2c-0.8,0-1.5,0.2-2.1,0.5c-0.6,0.3-1,0.8-1.4,1.4c-0.4,0.6-0.6,1.2-0.8,1.9
		c-0.2,0.7-0.2,1.5-0.2,2.3c0,0.8,0.1,1.6,0.2,2.3c0.1,0.7,0.4,1.3,0.7,1.9c0.3,0.5,0.8,1,1.4,1.3C128.4,25.1,129.1,25.2,130,25.2"
		/>
	<path fill="#575B5E" d="M149.4,19.2c0-0.8-0.1-1.6-0.2-2.4c-0.1-0.8-0.4-1.4-0.7-2c-0.3-0.6-0.8-1-1.3-1.4
		c-0.5-0.3-1.2-0.5-2.1-0.5c-0.7,0-1.4,0.2-2,0.5c-0.6,0.3-1,0.7-1.4,1.3c-0.4,0.5-0.6,1.2-0.8,1.9c-0.2,0.8-0.3,1.6-0.3,2.4
		c0,2,0.3,3.5,0.9,4.6c0.6,1.1,1.8,1.7,3.4,1.7c0.8,0,1.5-0.2,2.1-0.5c0.6-0.3,1-0.8,1.4-1.4c0.3-0.6,0.6-1.2,0.7-2
		C149.3,20.8,149.4,20.1,149.4,19.2 M153.5,19.1c0,3.1-0.7,5.5-2.2,7.2c-1.4,1.7-3.6,2.5-6.4,2.5c-2.8,0-4.9-0.8-6.3-2.4
		c-1.4-1.6-2.1-4-2.1-7.1c0-1.5,0.2-2.9,0.6-4.1c0.4-1.2,1-2.2,1.8-3c0.7-0.8,1.6-1.4,2.7-1.9c1-0.4,2.2-0.7,3.5-0.7
		c2.8,0,4.9,0.8,6.3,2.5C152.8,13.8,153.5,16.2,153.5,19.1"/>
	<path fill="#A4A6A5" d="M93.8,50h-3.4c-0.4,0-0.8,0-1.3,0.1c-0.5,0-0.9,0.2-1.3,0.4c-0.4,0.2-0.8,0.5-1,0.9c-0.3,0.4-0.4,1-0.4,1.7
		c0,1,0.4,1.7,1,2.1c0.7,0.4,1.6,0.6,2.7,0.6c0.2,0,0.4,0,0.7,0c0.3,0,0.6,0,0.9-0.1c0.3,0,0.7-0.1,1-0.2c0.4-0.1,0.7-0.2,1-0.3V50z
		 M98,56.7c0,0.6-0.2,0.9-0.7,1.2c-0.5,0.2-1.1,0.4-1.7,0.6c-0.6,0.2-1.2,0.3-1.9,0.4c-0.6,0.1-1.3,0.2-1.9,0.2c-0.6,0-1.2,0-1.8,0
		c-1.6,0-2.9-0.1-3.9-0.5c-1-0.3-1.8-0.7-2.4-1.3c-0.6-0.5-1-1.2-1.3-1.9c-0.2-0.7-0.4-1.5-0.4-2.3c0-0.8,0.1-1.6,0.4-2.4
		c0.3-0.8,0.7-1.4,1.3-2c0.6-0.6,1.4-1,2.4-1.4c1-0.4,2.2-0.5,3.6-0.5h4v-0.6c0-0.4-0.1-0.9-0.1-1.2c-0.1-0.4-0.3-0.7-0.6-1
		c-0.3-0.3-0.6-0.5-1.1-0.6c-0.5-0.2-1.1-0.2-1.9-0.2c-0.8,0-1.7,0.1-2.6,0.2c-1,0.1-1.7,0.3-2.3,0.5c-0.2,0.1-0.4,0.1-0.6,0
		c-0.1,0-0.2-0.2-0.2-0.4l-0.5-2c-0.1-0.4,0-0.6,0.3-0.7c1-0.4,2.1-0.6,3.3-0.8c1.2-0.1,2.3-0.2,3.3-0.2c2.5,0,4.2,0.5,5.4,1.6
		c1.1,1.1,1.7,2.7,1.7,4.8V56.7z"/>
	<path fill="#A4A6A5" d="M120.2,50h-3.4c-0.4,0-0.8,0-1.3,0.1c-0.5,0-0.9,0.2-1.3,0.4c-0.4,0.2-0.8,0.5-1,0.9
		c-0.3,0.4-0.4,1-0.4,1.7c0,1,0.3,1.7,1,2.1c0.7,0.4,1.6,0.6,2.7,0.6c0.2,0,0.4,0,0.7,0c0.3,0,0.6,0,0.9-0.1c0.3,0,0.7-0.1,1-0.2
		c0.4-0.1,0.7-0.2,1-0.3V50z M124.4,56.7c0,0.6-0.2,0.9-0.7,1.2c-0.5,0.2-1.1,0.4-1.7,0.6c-0.6,0.2-1.2,0.3-1.9,0.4
		c-0.6,0.1-1.3,0.2-1.9,0.2c-0.6,0-1.2,0-1.8,0c-1.6,0-2.9-0.1-3.9-0.5c-1-0.3-1.8-0.7-2.5-1.3c-0.6-0.5-1-1.2-1.3-1.9
		c-0.2-0.7-0.4-1.5-0.4-2.3c0-0.8,0.1-1.6,0.4-2.4c0.3-0.8,0.7-1.4,1.3-2c0.6-0.6,1.4-1,2.4-1.4c1-0.4,2.2-0.5,3.6-0.5h4v-0.6
		c0-0.4,0-0.9-0.1-1.2c-0.1-0.4-0.3-0.7-0.5-1c-0.3-0.3-0.7-0.5-1.1-0.6c-0.5-0.2-1.1-0.2-1.8-0.2c-0.8,0-1.7,0.1-2.6,0.2
		c-0.9,0.1-1.7,0.3-2.3,0.5c-0.3,0.1-0.4,0.1-0.6,0c-0.1,0-0.2-0.2-0.3-0.4l-0.5-2c-0.1-0.4,0-0.6,0.3-0.7c1-0.4,2.1-0.6,3.3-0.8
		c1.2-0.1,2.3-0.2,3.3-0.2c2.5,0,4.3,0.5,5.4,1.6c1.1,1.1,1.7,2.7,1.7,4.8V56.7z"/>
	<path fill="#A4A6A5" d="M153.3,43.1c-0.6,0-1.2,0.1-1.7,0.4c-0.5,0.3-0.9,0.6-1.3,1c-0.4,0.4-0.6,0.9-0.9,1.5
		c-0.2,0.5-0.3,1.1-0.3,1.7h8.1c0-0.6-0.1-1.2-0.2-1.8c-0.1-0.5-0.3-1-0.6-1.4c-0.3-0.4-0.7-0.7-1.2-1
		C154.8,43.3,154.1,43.1,153.3,43.1 M153.3,39.7c2.7,0,4.7,0.7,6,2.1c1.3,1.4,2,3.3,2,5.7c0,0.6-0.1,1.1-0.2,1.5
		c-0.1,0.4-0.3,0.7-0.6,0.9c-0.3,0.2-0.6,0.4-0.9,0.5c-0.3,0.1-0.7,0.1-1.1,0.1H149c0,0.9,0.2,1.7,0.4,2.3c0.3,0.6,0.6,1.1,1.1,1.5
		c0.5,0.4,1,0.7,1.6,0.8c0.6,0.2,1.3,0.3,1.9,0.3c0.7,0,1.5-0.1,2.2-0.3c0.7-0.2,1.4-0.4,1.9-0.7c0.4-0.2,0.6-0.1,0.8,0.2l1,2
		c0.2,0.4,0.1,0.7-0.2,0.8c-0.9,0.5-1.9,0.9-3,1.1c-1.1,0.2-2.1,0.3-3,0.3c-2.9,0-5-0.8-6.5-2.3c-1.5-1.5-2.3-4-2.3-7.3
		c0-1.6,0.2-2.9,0.6-4.2c0.4-1.2,1-2.3,1.7-3.1c0.8-0.8,1.6-1.5,2.7-1.9C150.9,39.9,152,39.7,153.3,39.7"/>
	<path fill="#A4A6A5" d="M191.7,50h-3.4c-0.4,0-0.8,0-1.3,0.1c-0.5,0-0.9,0.2-1.3,0.4c-0.4,0.2-0.7,0.5-1,0.9
		c-0.3,0.4-0.4,1-0.4,1.7c0,1,0.3,1.7,1,2.1c0.7,0.4,1.6,0.6,2.7,0.6c0.2,0,0.4,0,0.7,0c0.3,0,0.6,0,0.9-0.1c0.3,0,0.7-0.1,1-0.2
		c0.4-0.1,0.7-0.2,1-0.3V50z M195.9,56.7c0,0.6-0.2,0.9-0.7,1.2c-0.5,0.2-1.1,0.4-1.7,0.6c-0.6,0.2-1.2,0.3-1.9,0.4
		c-0.6,0.1-1.3,0.2-1.9,0.2c-0.6,0-1.2,0-1.8,0c-1.6,0-2.8-0.1-3.9-0.5c-1-0.3-1.8-0.7-2.4-1.3c-0.6-0.5-1-1.2-1.3-1.9
		c-0.2-0.7-0.4-1.5-0.4-2.3c0-0.8,0.1-1.6,0.4-2.4c0.3-0.8,0.7-1.4,1.3-2c0.6-0.6,1.4-1,2.4-1.4c1-0.4,2.2-0.5,3.6-0.5h4v-0.6
		c0-0.4,0-0.9-0.1-1.2c-0.1-0.4-0.3-0.7-0.5-1c-0.3-0.3-0.6-0.5-1.1-0.6c-0.5-0.2-1.1-0.2-1.8-0.2c-0.8,0-1.7,0.1-2.6,0.2
		c-0.9,0.1-1.7,0.3-2.3,0.5c-0.3,0.1-0.5,0.1-0.6,0c-0.1,0-0.2-0.2-0.3-0.4l-0.5-2c-0.1-0.4,0-0.6,0.3-0.7c1-0.4,2.1-0.6,3.2-0.8
		c1.2-0.1,2.3-0.2,3.3-0.2c2.5,0,4.3,0.5,5.4,1.6c1.1,1.1,1.7,2.7,1.7,4.8V56.7z"/>
	<path fill="#A4A6A5" d="M82.9,34.1c-0.1-0.1-0.3-0.2-0.6-0.2h-10c-1.2,0-2.2,0.2-3,0.5c-0.8,0.3-1.5,0.8-1.9,1.4
		c-0.5,0.6-0.9,1.3-1.1,2c-0.2,0.8-0.3,1.6-0.3,2.4V58c0,0.3,0.1,0.5,0.2,0.6c0.1,0.1,0.3,0.1,0.6,0.1H68c0.8-0.1,2.4-0.4,2.4-2.8
		v-8.2H81c0.3,0,0.5-0.1,0.6-0.2c0.1-0.1,0.1-0.3,0.1-0.6v-2c0-0.3,0-0.6-0.1-0.7c-0.1-0.1-0.3-0.2-0.6-0.2H70.3V40
		c0-0.8,0.2-1.3,0.6-1.7c0.4-0.4,1-0.6,1.9-0.6h9.5c0.3,0,0.5-0.1,0.6-0.2c0.1-0.1,0.1-0.3,0.1-0.6v-2.2C83,34.4,83,34.2,82.9,34.1"
		/>
	<path fill="#A4A6A5" d="M138.8,52.3c-0.2,0.8-0.6,1.4-1,1.9c-0.4,0.5-0.9,0.8-1.6,1.1c-0.6,0.2-1.3,0.3-2,0.3c-0.5,0-1,0-1.6-0.1
		c-0.6,0-1.2-0.2-1.8-0.4V43.8c0.8-0.2,1.5-0.4,2.2-0.5c0.7-0.1,1.2-0.1,1.6-0.1c1.4,0,2.5,0.5,3.3,1.5c0.8,1,1.2,2.5,1.2,4.6
		C139.1,50.5,139,51.5,138.8,52.3 M142.9,45.4c-0.3-1.2-0.8-2.2-1.5-3c-0.7-0.8-1.5-1.5-2.5-2c-1-0.5-2.2-0.7-3.7-0.7
		c-0.6,0-1.4,0.1-2.2,0.2c-0.8,0.1-1.6,0.3-2.3,0.5l0-6.9c0-0.3,0-0.5-0.1-0.5c-0.1-0.1-0.3-0.1-0.5-0.1H129
		c-0.8,0.1-2.3,0.5-2.3,2.7V57c0,0.2,0,0.4,0.1,0.5c0.1,0.1,0.2,0.2,0.4,0.3c1.1,0.5,2.2,0.8,3.5,1c1.3,0.2,2.5,0.3,3.7,0.3
		c1.5,0,2.9-0.2,4-0.7c1.1-0.5,2.1-1.2,2.8-2.1c0.7-0.9,1.3-1.9,1.6-3.1c0.3-1.2,0.5-2.5,0.5-3.9C143.4,47.9,143.2,46.6,142.9,45.4"
		/>
	<path fill="#A4A6A5" d="M170.4,57.9l-0.2-2c0-0.2-0.1-0.3-0.2-0.4c-0.1,0-0.2-0.1-0.4,0c-0.2,0-0.4,0-0.6,0.1c-0.2,0-0.5,0-0.6,0
		c-0.5,0-0.8-0.1-1-0.3c-0.2-0.2-0.2-0.6-0.2-1.3V33.5c0-0.3-0.1-0.4-0.2-0.5c-0.1-0.1-0.3-0.1-0.5-0.1h-1.1
		c-0.8,0.1-2.3,0.5-2.3,2.6V55c0,1.5,0.3,2.6,0.9,3.2c0.6,0.6,1.6,0.9,2.9,0.9c0.5,0,1,0,1.6-0.1c0.6-0.1,1.1-0.2,1.6-0.4
		c0.2-0.1,0.4-0.2,0.4-0.3C170.4,58.3,170.4,58.1,170.4,57.9"/>
	<path fill="#A4A6A5" d="M179.5,57.9l-0.2-2c0-0.2-0.1-0.3-0.2-0.4c-0.1,0-0.2-0.1-0.4,0c-0.2,0-0.4,0-0.6,0.1c-0.2,0-0.5,0-0.6,0
		c-0.5,0-0.8-0.1-1-0.3c-0.2-0.2-0.2-0.6-0.2-1.3V33.5c0-0.3-0.1-0.4-0.2-0.5c-0.1-0.1-0.3-0.1-0.6-0.1h-1.1
		c-0.8,0.1-2.3,0.5-2.3,2.7V55c0,1.5,0.3,2.6,0.9,3.2c0.6,0.6,1.6,0.9,2.9,0.9c0.5,0,1,0,1.6-0.1c0.6-0.1,1.1-0.2,1.6-0.4
		c0.2-0.1,0.4-0.2,0.4-0.3C179.5,58.3,179.5,58.1,179.5,57.9"/>
	<path fill="#A4A6A5" d="M108.1,57.9l-0.2-2c0-0.2-0.1-0.3-0.2-0.4c-0.1,0-0.2-0.1-0.4,0c-0.2,0-0.4,0-0.6,0.1c-0.2,0-0.5,0-0.7,0
		c-0.5,0-0.8-0.1-0.9-0.3c-0.2-0.2-0.3-0.6-0.3-1.3V33.5c0-0.3,0-0.4-0.1-0.5c-0.1-0.1-0.3-0.1-0.5-0.1h-1.1
		c-0.8,0.1-2.3,0.5-2.3,2.7V55c0,1.5,0.3,2.6,0.9,3.2c0.6,0.6,1.6,0.9,2.9,0.9c0.5,0,1,0,1.6-0.1c0.6-0.1,1.1-0.2,1.6-0.4
		c0.2-0.1,0.4-0.2,0.4-0.3C108.1,58.3,108.1,58.1,108.1,57.9"/>
</g>
</svg>
