<?xml version="1.0" encoding="utf-8"?>
<!-- Generator: Adobe Illustrator 18.0.0, SVG Export Plug-In . SVG Version: 6.00 Build 0)  -->
<!DOCTYPE svg PUBLIC "-//W3C//DTD SVG 1.1//EN" "http://www.w3.org/Graphics/SVG/1.1/DTD/svg11.dtd">
<svg version="1.1" id="Layer_1" xmlns="http://www.w3.org/2000/svg" xmlns:xlink="http://www.w3.org/1999/xlink" x="0px" y="0px"
	 viewBox="0 0 19.5 16.2" enable-background="new 0 0 19.5 16.2" xml:space="preserve">
<g>
	<g>
		<g>
			<path fill="#474747" d="M0,8.1C0,3.5,4.4,0,9.8,0l0,0c5.3,0,9.7,3.5,9.8,8.1l0,0c0,4.5-4.4,8.1-9.8,8.1l0,0
				C4.4,16.2,0,12.6,0,8.1L0,8.1z M3.6,3.2C2,4.4,1.1,6.2,1.1,8.1l0,0C1.1,10,2,11.7,3.6,13l0,0c1.6,1.3,3.8,2.1,6.2,2.1l0,0
				c2.4,0,4.6-0.8,6.2-2.1l0,0c1.6-1.3,2.5-3,2.5-4.9l0,0c0-1.9-0.9-3.6-2.5-4.9l0,0c-1.6-1.3-3.8-2.1-6.2-2.1l0,0h0l0,0
				C7.3,1.1,5.1,1.9,3.6,3.2L3.6,3.2z"/>
		</g>
	</g>
	<polygon fill="#474747" points="5.2,3.8 2.9,7.9 5.2,12.1 7.5,7.9 	"/>
	<polygon fill="#474747" points="9.8,3.8 7.5,8 9.8,12.1 12.1,8 	"/>
	<polygon fill="#474747" points="14.4,3.8 12.1,8 14.4,12.1 16.7,8 	"/>
</g>
</svg>
