<?xml version="1.0" encoding="utf-8"?>
<!-- Generator: Adobe Illustrator 18.0.0, SVG Export Plug-In . SVG Version: 6.00 Build 0)  -->
<!DOCTYPE svg PUBLIC "-//W3C//DTD SVG 1.1//EN" "http://www.w3.org/Graphics/SVG/1.1/DTD/svg11.dtd">
<svg version="1.1" id="Layer_1" xmlns="http://www.w3.org/2000/svg" xmlns:xlink="http://www.w3.org/1999/xlink" x="0px" y="0px"
	 viewBox="0 0 23.5 23.5" enable-background="new 0 0 23.5 23.5" xml:space="preserve">
<path fill="#FFFFFF" d="M11.7,0C5.3,0,0,5.3,0,11.7c0,6.5,5.3,11.7,11.7,11.7s11.7-5.3,11.7-11.7C23.5,5.3,18.2,0,11.7,0z
	 M17.4,11.5c0,0-0.5,0.6-1.3,0.4c0,0-0.6,3.8-6.2,3.8c0,0-2.8-0.3-3.9-2.2c0,0,1.8,1.8,4.2-0.1c0,0,0.2-0.2,0-0.2
	c-0.2,0.1-0.9,0-0.8-0.4c0,0,0.2-0.4,0.4-0.4c-0.1,0-0.8,0.1-1.4-0.8c0,0,0.3-0.4,0.8-0.3c0,0-1.4-0.3-1.4-1.2l0.7-0.1
	c0,0-0.9-0.4-1-1.5c0,0,3,1,4,2c0,0-0.1-2.1,1.9-2.7V8c0,0,0.4-0.3,0.6-0.2c0,0-0.1,0.2-0.3,0.3c0,0,0.7-0.2,0.7,0
	c0,0-0.3,0.4-0.9,0.5c0,0,1.7,0,2.4,2.2c0,0,0.9,0.2,1.3-0.1c0,0-0.2,0.6-1.1,0.6C16.3,11.2,16.6,11.6,17.4,11.5z"/>
</svg>
