<?xml version="1.0" encoding="utf-8"?>
<!-- Generator: Adobe Illustrator 18.0.0, SVG Export Plug-In . SVG Version: 6.00 Build 0)  -->
<!DOCTYPE svg PUBLIC "-//W3C//DTD SVG 1.1//EN" "http://www.w3.org/Graphics/SVG/1.1/DTD/svg11.dtd">
<svg version="1.1" id="Layer_1" xmlns="http://www.w3.org/2000/svg" xmlns:xlink="http://www.w3.org/1999/xlink" x="0px" y="0px"
	 viewBox="0 0 34.4 34.4" enable-background="new 0 0 34.4 34.4" xml:space="preserve">
<path fill="#FFFFFF" d="M34.1,29.5l-6-6c1.5-2.4,2.4-5.2,2.4-8.2C30.5,6.8,23.7,0,15.3,0S0,6.8,0,15.3c0,8.4,6.8,15.3,15.3,15.3
	c3,0,5.8-0.9,8.2-2.4l6,6c0.4,0.4,1.1,0.4,1.5,0l3.1-3.1C34.5,30.6,34.5,29.9,34.1,29.5z M15.3,26.1c-6,0-10.9-4.9-10.9-10.9
	c0-6,4.9-10.9,10.9-10.9c6,0,10.9,4.9,10.9,10.9C26.1,21.3,21.3,26.1,15.3,26.1z"/>
</svg>
