<?xml version="1.0" encoding="utf-8"?>
<!-- Generator: Adobe Illustrator 18.0.0, SVG Export Plug-In . SVG Version: 6.00 Build 0)  -->
<!DOCTYPE svg PUBLIC "-//W3C//DTD SVG 1.1//EN" "http://www.w3.org/Graphics/SVG/1.1/DTD/svg11.dtd">
<svg version="1.1" id="Layer_1" xmlns="http://www.w3.org/2000/svg" xmlns:xlink="http://www.w3.org/1999/xlink" x="0px" y="0px"
	 viewBox="0 0 206.1 34.8" enable-background="new 0 0 206.1 34.8" xml:space="preserve">
<g>
	<path fill="#72797E" d="M133.1,11.4c0.4-2.6-0.7-3.3-2.8-3.3h-2.5c-1.6,0-2,0.1-2.3,1.6l-1.1,6.3h3.8c1.1,0,1.8-0.3,2.2-0.8
		c0.2-0.2,0.4-0.5,0.5-0.8c0.1-0.2,0.2-0.5,0.3-0.7c0,0,0-0.1,0.1-0.1l1,0l-1.2,6.9H130c0.3-1.8-0.2-2.8-2.1-2.8h-3.8l-1.3,7.1
		c-0.3,1.7,0,1.8,1.6,1.8h3.6c1.8,0,2.8-0.7,3.4-3.1l1,0l-0.9,4.8h-13l3-17.4c0.3-1.6,0.4-2.4,0.1-2.8c-0.3-0.4-0.9-0.5-2.2-0.8
		c-0.1,0-0.3-0.1-0.4-0.1l0.2-0.8h15.6l-0.8,4.9H133.1z"/>
	<path fill="#72797E" d="M139.6,18.6c0.4,0.2,0.8,0.5,1.2,0.7c1.6,1,3.2,2.3,2.7,4.8c-0.6,3.2-3.5,4.5-6.7,4.5c-1,0-1.8-0.1-2.5-0.2
		c-0.6-0.1-1.3-0.3-1.6-0.4l0.5-2.7c1,0.8,2.3,1.7,4,1.7c2,0,2.9-1,3.1-2.1c0.1-0.8-0.2-1.3-0.7-1.9c-0.3-0.3-0.6-0.5-1-0.8
		c-0.4-0.2-0.8-0.5-1.2-0.7c-1.6-1-3.2-2.2-2.8-4.5c0.4-2.4,2.4-4.4,6.2-4.4c0.8,0,1.6,0.1,2.2,0.2c0.5,0.1,0.9,0.2,1.2,0.3
		c0,0,0.2,0.1,0.2,0.1l-0.4,2.6c-0.2-0.2-0.4-0.3-0.6-0.4c-0.2-0.2-0.5-0.3-0.8-0.5c-0.6-0.3-1.4-0.6-2.3-0.6c-1,0-2.3,0.4-2.5,1.7
		c-0.1,0.7,0.2,1.3,0.8,1.8C138.8,18.2,139.2,18.4,139.6,18.6"/>
	<path fill="#72797E" d="M148.3,13.2l0.4-2.5l3.9-3l-1,5.5h4.2l-0.3,1.4h-4.2l-1.6,9.3c-0.4,2.3-0.4,3.2,2,3.2c0.4,0,0.9,0,1.2-0.1
		l-0.2,1.4c-0.8,0.1-1.5,0.3-2.2,0.3c-3.1,0-4.9-0.5-4.3-4.3l1.7-9.8h-2.5l0.3-1.4H148.3z"/>
	<path fill="#72797E" d="M163,19.9l0.3-1.6c0.4-2.1,0.7-4.2-1.2-4.2c-2,0-2.5,1.7-2.7,3.1c0,0,0,0.2,0,0.2l-4,0
		c0.8-2.3,2.3-4.5,6.9-4.5c4.7,0,5,2.4,4.4,5.6l-1.7,9.9h-3.4l0.3-1.8c-0.2,0.2-0.3,0.3-0.5,0.5c-0.3,0.2-0.6,0.5-1,0.8
		c-0.8,0.5-1.7,0.9-3,0.9c-2.6,0-4.1-1.8-3.8-3.8C154.5,20.4,160.9,19.9,163,19.9 M157.5,24.4c-0.3,1.5,0.3,2.4,1.4,2.4
		c1.8,0,3.2-1.7,3.6-3.9l0.3-1.8C161.4,21.2,158,21.5,157.5,24.4 M157.5,24.4c-0.3,1.5,0.3,2.4,1.4,2.4c1.8,0,3.2-1.7,3.6-3.9
		l0.3-1.8C161.4,21.2,158,21.5,157.5,24.4 M163,19.9l0.3-1.6c0.4-2.1,0.7-4.2-1.2-4.2c-2,0-2.5,1.7-2.7,3.1c0,0,0,0.2,0,0.2l-4,0
		c0.8-2.3,2.3-4.5,6.9-4.5c4.7,0,5,2.4,4.4,5.6l-1.7,9.9h-3.4l0.3-1.8c-0.2,0.2-0.3,0.3-0.5,0.5c-0.3,0.2-0.6,0.5-1,0.8
		c-0.8,0.5-1.7,0.9-3,0.9c-2.6,0-4.1-1.8-3.8-3.8C154.5,20.4,160.9,19.9,163,19.9"/>
	<path fill="#72797E" d="M184.1,5.6l-4,22.8h-3.4l0.3-1.7c-0.3,0.2-0.5,0.4-0.7,0.5c-0.3,0.2-0.7,0.5-1.1,0.7
		c-0.8,0.4-1.8,0.8-3,0.8c-4.3,0-5.2-3.6-4.5-7.6c0.7-4.1,3.1-8.2,7.4-8.2c2.6,0,3.4,1.3,3.9,2.3c0.1-0.1,0.1-0.5,0.2-0.9l0.3-1.8
		c0.2-1.3,0.4-2.5,0.4-2.5c0.4-2.2,0-2.7-1.6-2.8c-0.1,0-0.3,0-0.3,0l0.2-0.8L184.1,5.6z M178.2,19.8c0.3-1.8,0.5-5.1-2.4-5.1
		c-2.9,0-3.8,3.6-4.2,5.9c-0.4,2.5-0.8,6.2,2.1,6.2c3,0,4-4,4.3-5.7L178.2,19.8z"/>
	<path fill="#72797E" d="M191.3,12.8c4.7,0,6.5,3.3,5.7,8c-0.9,5.3-3.6,7.9-8.4,7.9c-5.3,0-6.5-3.4-5.7-7.9
		C183.8,15.3,186.5,12.8,191.3,12.8 M193.2,20.8c0.5-3,0.9-6.7-2.2-6.7c-3.1,0-4,3.9-4.5,6.7c-0.5,2.7-0.9,6.7,2.2,6.7
		C191.8,27.5,192.7,24,193.2,20.8 M193.2,20.8c0.5-3,0.9-6.7-2.2-6.7c-3.1,0-4,3.9-4.5,6.7c-0.5,2.7-0.9,6.7,2.2,6.7
		C191.8,27.5,192.7,24,193.2,20.8 M191.3,12.8c4.7,0,6.5,3.3,5.7,8c-0.9,5.3-3.6,7.9-8.4,7.9c-5.3,0-6.5-3.4-5.7-7.9
		C183.8,15.3,186.5,12.8,191.3,12.8"/>
	<path fill="#72797E" d="M49,25.4c-0.2,1.2,1,1.2,2.8,1.2c3.5,0,5.3-1.6,5.9-4.8c0.5-3.1-1.6-4.2-4.4-4.2h-2.9L49,25.4z M62.1,11.8
		c-0.5,3.1-2.9,4.4-4.6,4.9c2.1,0.5,4.5,1.7,3.8,5.8c-0.5,2.9-2.4,4.4-4.5,5.1c-1.1,0.4-2.2,0.5-3.2,0.6c-1,0.1-1.9,0.1-2.6,0.1
		h-6.2l3.1-17.4c0.3-1.6,0.4-2.4,0.1-2.8c-0.3-0.4-1.1-0.6-2.5-0.8l0.1-0.8h9.7C59,6.5,62.8,7.3,62.1,11.8 M50.7,16h2.1
		c2.8,0,5-0.9,5.6-4c0.5-2.8-0.9-3.8-3.8-3.8c-1.9,0-2.4,0.1-2.7,1.6L50.7,16z"/>
	<path fill="#72797E" d="M70.9,19.9l0.3-1.6c0.4-2.1,0.7-4.2-1.2-4.2c-2,0-2.5,1.6-2.7,3c0,0.1,0,0.2,0,0.3l-4,0
		c0.8-2.3,2.3-4.5,6.9-4.5c4.7,0,5,2.4,4.4,5.6l-1.7,9.9h-3.4l0.3-1.8c-0.2,0.2-0.3,0.3-0.5,0.5c-0.3,0.2-0.6,0.5-1,0.8
		c-0.8,0.5-1.7,0.9-3,0.9c-2.6,0-4.1-1.8-3.7-3.8C62.4,20.4,68.7,19.9,70.9,19.9 M65.4,24.4c-0.3,1.5,0.3,2.4,1.4,2.4
		c1.8,0,3.2-1.7,3.6-3.9l0.3-1.8C69.3,21.2,65.9,21.5,65.4,24.4 M65.4,24.4c-0.3,1.5,0.3,2.4,1.4,2.4c1.8,0,3.2-1.7,3.6-3.9l0.3-1.8
		C69.3,21.2,65.9,21.5,65.4,24.4 M70.9,19.9l0.3-1.6c0.4-2.1,0.7-4.2-1.2-4.2c-2,0-2.5,1.6-2.7,3c0,0.1,0,0.2,0,0.3l-4,0
		c0.8-2.3,2.3-4.5,6.9-4.5c4.7,0,5,2.4,4.4,5.6l-1.7,9.9h-3.4l0.3-1.8c-0.2,0.2-0.3,0.3-0.5,0.5c-0.3,0.2-0.6,0.5-1,0.8
		c-0.8,0.5-1.7,0.9-3,0.9c-2.6,0-4.1-1.8-3.7-3.8C62.4,20.4,68.7,19.9,70.9,19.9"/>
	<path fill="#72797E" d="M86.3,19.9c0.5-2.6,0.8-4.7-1.3-4.7c-2.1,0-4.4,3-4.8,5.2l-1.4,7.9h-3.4l1.9-10.9c0.4-2.1,0-2.7-1.8-2.8
		c0,0-0.2,0-0.3,0l0.1-0.8l6.1-1.1l-0.7,4c1-1.5,3.2-4,6.1-4c3,0,3.6,2.1,3.2,4.6l-1.9,10.9h-3.4L86.3,19.9z"/>
	<path fill="#72797E" d="M100.3,17.4c0.3-1.5,0.2-3.3-1.7-3.3c-2.1,0-3,2.3-3.6,5.4c-0.8,4.8,0.9,7.3,3.8,7.3c1,0,2.2-0.2,3-0.4
		c0,0,0.1,0,0.2-0.1l-0.3,1.6c-0.7,0.2-1.1,0.4-1.8,0.5c-0.7,0.1-1.6,0.2-2.9,0.2c-4.6,0-6.7-3.3-5.9-8.2c0.8-4.4,3.2-7.7,7.8-7.7
		c3.5,0,5.6,1.7,5.3,4.3c0,0.1,0,0.2,0,0.3L100.3,17.4z"/>
	<path fill="#72797E" d="M112.2,12.8c4.7,0,6.5,3.3,5.7,8c-0.9,5.3-3.6,7.9-8.4,7.9c-5.3,0-6.5-3.4-5.7-7.9
		C104.8,15.3,107.5,12.8,112.2,12.8 M114.2,20.8c0.5-3,0.9-6.7-2.2-6.7c-3.1,0-4,3.9-4.5,6.7c-0.5,2.7-0.9,6.7,2.2,6.7
		C112.8,27.5,113.6,24,114.2,20.8 M114.2,20.8c0.5-3,0.9-6.7-2.2-6.7c-3.1,0-4,3.9-4.5,6.7c-0.5,2.7-0.9,6.7,2.2,6.7
		C112.8,27.5,113.6,24,114.2,20.8 M112.2,12.8c4.7,0,6.5,3.3,5.7,8c-0.9,5.3-3.6,7.9-8.4,7.9c-5.3,0-6.5-3.4-5.7-7.9
		C104.8,15.3,107.5,12.8,112.2,12.8"/>
	<circle fill="none" stroke="#72797E" stroke-width="2.834400e-002" stroke-miterlimit="3.864" cx="203.4" cy="15.4" r="2.7"/>
	<path fill="#72797E" d="M202.3,17.3h0.6v-1.7h0.2c0.6,0,0.7,0.3,0.8,0.7l0.2,1h0.6l-0.2-1c-0.1-0.4-0.2-0.8-0.7-0.9v0
		c0.3-0.1,0.8-0.3,0.8-0.9c0-0.9-0.8-1-1.5-1h-0.8V17.3z"/>
	<path fill="#FFFFFF" d="M202.9,13.9h0.2c0.6,0,0.9,0.1,0.9,0.7c0,0.6-0.5,0.7-0.9,0.7h-0.2V13.9z"/>
	<path fill="#FFFFFF" d="M202.9,13.9h0.2c0.6,0,0.9,0.1,0.9,0.7c0,0.6-0.5,0.7-0.9,0.7h-0.2V13.9z"/>
	<rect x="0" y="0" fill="#C21F3E" width="34.7" height="34.8"/>
	<polygon fill="#F28C20" points="34.7,18.3 20,5.9 20,5.9 20,29 34.7,29 	"/>
	<path fill="#FFFFFF" d="M20,9.2l0-3.3c-1,1.1-3.6,3.1-6.8,3.6V12l-2.5,1.1v2.2L0,19.5V29h22.6V8.2L20,9.2z"/>
	<path fill="#C21F3E" d="M13.2,14.4l-2,0.8c-0.2,0.1-0.4,0.4-0.4,0.6l0,1.6c0,0.3-0.2,0.5-0.4,0.5L0,21.9v2.4l10.4-4
		c0.2-0.1,0.4-0.4,0.4-0.6v-1.6c0-0.2,0.2-0.5,0.4-0.5l2-0.8V14.4z"/>
	<path fill="#C21F3E" d="M13.2,19l-2,0.8c-0.2,0.1-0.4,0.4-0.4,0.6l0,1.6c0,0.2-0.2,0.5-0.4,0.5L0,26.6V29l10.4-4.1
		c0.2-0.1,0.4-0.4,0.4-0.6v-1.6c0-0.2,0.2-0.5,0.4-0.5l2-0.8V19z"/>
	<rect x="0" y="29" fill="#124B8D" width="34.7" height="5.8"/>
	<path fill="#FFFFFF" d="M9.4,31.7l0,0.3c0,0.2-0.2,0.5-0.4,0.7c-0.1,0.1-0.3,0.2-0.4,0.2c-0.1,0-0.1-0.1-0.1-0.2
		c0-0.2,0.1-0.6,0.2-0.8c0.1-0.2,0.3-0.3,0.5-0.3C9.2,31.6,9.3,31.6,9.4,31.7 M10.3,30.1l-0.5,0.1l-0.2,1.2
		c-0.2-0.1-0.3-0.1-0.4-0.1c-0.6,0-1.2,0.7-1.2,1.6c0,0.4,0.1,0.6,0.4,0.6c0.2,0,0.4-0.1,0.6-0.2C9,33.1,9.1,33,9.2,32.9
		c0,0,0.1-0.1,0.1-0.2l-0.1,0.6h0.5L10.3,30.1z"/>
	<path fill="#FFFFFF" d="M11.7,31.8c0,0,0,0.1,0,0.1l-0.7,0.4c0.1-0.3,0.2-0.4,0.3-0.5c0.1-0.1,0.2-0.2,0.3-0.2
		C11.6,31.6,11.7,31.6,11.7,31.8 M12.2,31.6c0-0.3-0.2-0.4-0.6-0.4c-0.7,0-1.2,0.6-1.2,1.5c0,0.5,0.2,0.7,0.6,0.7
		c0.2,0,0.4-0.1,0.6-0.1c0.1,0,0.1-0.1,0.2-0.1c0.1-0.1,0.2-0.1,0.3-0.2l-0.2-0.3c-0.3,0.2-0.4,0.3-0.5,0.3c-0.1,0-0.2,0.1-0.3,0.1
		c-0.1,0-0.2,0-0.2-0.1c0,0,0-0.1-0.1-0.2l0.9-0.5C12.1,32,12.2,31.9,12.2,31.6"/>
	<path fill="#FFFFFF" d="M14,31.3c-0.2-0.1-0.4-0.1-0.6-0.1c-0.5,0-0.8,0.2-0.8,0.6c0,0.1,0,0.2,0.1,0.3c0,0.1,0.1,0.1,0.2,0.2
		c0,0,0.1,0.1,0.2,0.2c0.1,0.1,0.1,0.2,0.1,0.2c0,0.1-0.1,0.2-0.3,0.2c-0.1,0-0.3,0-0.5-0.1l-0.2,0.4c0.2,0,0.2,0.1,0.4,0.1
		c0.1,0,0.2,0,0.3,0c0.4,0,0.7-0.2,0.7-0.6c0-0.2-0.1-0.4-0.4-0.6c-0.2-0.2-0.3-0.2-0.3-0.3c0,0,0-0.1,0-0.1c0-0.1,0.1-0.2,0.3-0.2
		c0.1,0,0.2,0,0.4,0.1L14,31.3z"/>
	<path fill="#FFFFFF" d="M15.8,31.7l0,0.3c0,0.2-0.2,0.5-0.4,0.7c-0.1,0.1-0.3,0.2-0.4,0.2c-0.1,0-0.1-0.1-0.1-0.2
		c0-0.2,0.1-0.6,0.2-0.8c0.1-0.2,0.3-0.3,0.5-0.3C15.6,31.6,15.7,31.6,15.8,31.7 M16.6,30.1l-0.5,0.1l-0.2,1.2
		c-0.2-0.1-0.3-0.1-0.4-0.1c-0.6,0-1.2,0.7-1.2,1.6c0,0.4,0.1,0.6,0.4,0.6c0.2,0,0.4-0.1,0.6-0.2c0.1-0.1,0.2-0.2,0.3-0.3
		c0,0,0.1-0.1,0.1-0.2l-0.1,0.6H16L16.6,30.1z"/>
	<path fill="#FFFFFF" d="M18.1,31.8c0,0,0,0.1,0,0.1l-0.7,0.4c0.1-0.3,0.2-0.4,0.3-0.5c0.1-0.1,0.2-0.2,0.3-0.2
		C18,31.6,18.1,31.6,18.1,31.8 M18.6,31.6c0-0.3-0.2-0.4-0.6-0.4c-0.7,0-1.2,0.6-1.2,1.5c0,0.5,0.2,0.7,0.6,0.7
		c0.2,0,0.4-0.1,0.6-0.1c0.1,0,0.1-0.1,0.2-0.1c0.1-0.1,0.2-0.1,0.3-0.2l-0.2-0.3c-0.3,0.2-0.4,0.3-0.5,0.3c-0.1,0-0.2,0.1-0.3,0.1
		c-0.1,0-0.2,0-0.2-0.1c0,0,0-0.1-0.1-0.2l0.9-0.5C18.5,32,18.6,31.9,18.6,31.6"/>
	<polygon fill="#FFFFFF" points="21.6,31.2 21.3,31.2 20.2,31.6 20.4,32 20.9,31.8 20.6,33.4 21.2,33.4 	"/>
	<path fill="#FFFFFF" d="M23.5,32.6c0,0.2-0.3,0.5-0.5,0.5c-0.3,0-0.4-0.1-0.4-0.4c0-0.2,0.1-0.4,0.3-0.5l0.3-0.2l0.3,0.3
		C23.5,32.3,23.5,32.4,23.5,32.6 M23.6,31c0,0.1-0.1,0.2-0.2,0.3l-0.3,0.2L23,31.3c0-0.1-0.1-0.1-0.1-0.2c0-0.2,0.2-0.3,0.4-0.3
		C23.5,30.7,23.6,30.8,23.6,31 M24.2,30.9c0-0.3-0.3-0.6-0.7-0.6c-0.6,0-1,0.3-1,0.7c0,0.2,0.1,0.4,0.2,0.5l0.2,0.2L22.4,32
		c-0.2,0.2-0.4,0.5-0.4,0.7c0,0.4,0.3,0.7,0.8,0.7c0.7,0,1.2-0.3,1.2-0.8c0-0.2-0.1-0.4-0.3-0.6l-0.3-0.3l0.3-0.2
		c0.2-0.1,0.3-0.2,0.4-0.4C24.2,31.1,24.2,31,24.2,30.9"/>
	<path fill="#FFFFFF" d="M26.1,31h-1.4l-0.3,1.5h0.3c0.1,0,0.3,0,0.4,0.1c0.1,0.1,0.1,0.2,0.1,0.3c0,0.4-0.3,0.7-0.6,0.7
		c-0.1,0-0.3,0-0.5-0.1L24.1,34c0.2,0.1,0.4,0.1,0.6,0.1c0.7,0,1.2-0.5,1.2-1.2c0-0.3-0.1-0.6-0.3-0.7c-0.1-0.1-0.2-0.1-0.4-0.1
		l0.1-0.7h0.8L26.1,31z"/>
	<path fill="#FFFFFF" d="M28.1,31h-1.4l-0.3,1.5h0.3c0.1,0,0.3,0,0.4,0.1c0.1,0.1,0.1,0.2,0.1,0.3c0,0.4-0.3,0.7-0.6,0.7
		c-0.1,0-0.3,0-0.5-0.1L26,34c0.2,0.1,0.4,0.1,0.6,0.1c0.7,0,1.2-0.5,1.2-1.2c0-0.3-0.1-0.6-0.3-0.7c-0.1-0.1-0.2-0.1-0.4-0.1
		l0.1-0.7H28L28.1,31z"/>
</g>
</svg>
