<?xml version="1.0" encoding="utf-8"?>
<!-- Generator: Adobe Illustrator 18.0.0, SVG Export Plug-In . SVG Version: 6.00 Build 0)  -->
<!DOCTYPE svg PUBLIC "-//W3C//DTD SVG 1.1//EN" "http://www.w3.org/Graphics/SVG/1.1/DTD/svg11.dtd">
<svg version="1.1" id="Layer_1" xmlns="http://www.w3.org/2000/svg" xmlns:xlink="http://www.w3.org/1999/xlink" x="0px" y="0px"
	 viewBox="0 0 225.7 40.3" enable-background="new 0 0 225.7 40.3" xml:space="preserve">
<g>
	<path fill-rule="evenodd" clip-rule="evenodd" fill="#EB2227" d="M8.1,20c-1.3-2.1-1.6-4.8-1.6-6.9C6.5,6,12.9,0,19.5,0h20.8
		l-8.1,8.1H19.4C14.2,8.1,7.9,13.4,8.1,20L8.1,20z M16,14.2c0.5-1.7,2.2-3.9,3.8-5.1c-3,0-6.4,1.4-9,5.1H16L16,14.2z M20.2,10.1
		c-1.2,1-2.5,2.6-3.1,4h6.2C22.6,12.8,21.3,11.2,20.2,10.1L20.2,10.1z M10.3,15.2c-0.8,1.4-1.2,3-1.3,4.5h5.8c0-1.6,0.3-3.1,0.8-4.5
		H10.3L10.3,15.2z M16.6,15.2c-0.5,1.4-0.8,3-0.9,4.5h8.8c-0.1-1.6-0.4-3.1-0.9-4.5H16.6L16.6,15.2z M29.4,14.2
		c-2.5-3.6-5.9-5.1-8.8-5.1c1.5,1.2,3.1,3.3,3.8,5.1H29.4L29.4,14.2z M24.7,15.2c0.5,1.4,0.8,3,0.8,4.5h5.8
		c-0.1-1.6-0.5-3.1-1.3-4.5H24.7L24.7,15.2z M10.8,26.1c2.6,3.8,6,5.1,9,5.1c-1.6-1.2-3.2-3.4-3.8-5.1H10.8L10.8,26.1z M20.2,30.3
		c1.2-1,2.4-2.7,3.1-4.2H17C17.7,27.6,19,29.3,20.2,30.3L20.2,30.3z M15.6,25.2c-0.5-1.6-0.8-3.1-0.8-4.5H9c0.1,1.5,0.5,3.1,1.3,4.5
		H15.6L15.6,25.2z M23.7,25.2c0.5-1.4,0.8-3,0.9-4.5h-8.8c0.1,1.5,0.4,3.1,0.9,4.5H23.7L23.7,25.2z M24.3,26.1
		c-0.7,1.7-2.2,3.9-3.8,5.1c3,0,6.4-1.3,8.8-5.1H24.3L24.3,26.1z M30,25.2c0.8-1.4,1.2-3,1.3-4.5h-5.8c0,1.4-0.2,3-0.8,4.5H30
		L30,25.2z M32.2,20.2c0.1,6.9-6.1,12.1-11.3,12.1H8.1l-8.1,8h20.8c6.6,0,13-6,13-13.1c0-2.1-0.3-4.8-1.6-6.9V20.2L32.2,20.2z"/>
	<path fill-rule="evenodd" clip-rule="evenodd" fill="#EB2227" d="M93,31.2c-5.4,0-9.3-3.2-9.3-8.3c0-5,4-8.4,9.3-8.4
		c5.3,0,9.3,3.3,9.3,8.4C102.3,27.9,98.4,31.2,93,31.2L93,31.2z M185.4,14.9v16H180l-0.1-1.6h-0.1c-0.6,0.5-1.8,2-5.3,2
		c-3.9,0-7.2-3.3-7.2-8.3c0-4.6,3-8.3,7.6-8.3c3.1,0,4.4,1.4,4.9,1.8h0.1l0.1-1.4H185.4L185.4,14.9z M143.8,14.9v16h-5.4l-0.1-1.6
		h-0.1c-0.6,0.5-1.8,2-5.3,2c-3.9,0-7.2-3.4-7.2-8.3c0-4.6,3-8.3,7.6-8.3c3.1,0,4.4,1.4,4.9,1.8h0.1l0.1-1.4H143.8L143.8,14.9z
		 M117.6,14.9h5.6v16h-5.6V14.9L117.6,14.9z M147.4,30.8V8.4h5.5v7.7h0.1c0.4-0.2,2.2-1.5,4.8-1.5c4.3,0,7.5,3.5,7.5,8.1
		c0,5.7-3.5,8.6-7.5,8.6c-3,0-4.6-1.4-4.9-1.8h-0.1l-0.1,1.5H147.4L147.4,30.8z M93,27.2c2.3,0,3.6-2,3.6-4.3c0-2.4-1.3-4.4-3.6-4.4
		c-2.4,0-3.6,2-3.6,4.4C89.4,25.2,90.8,27.2,93,27.2L93,27.2z M114.9,26.5c-0.3,0.1-1,0.3-1.5,0.3c-1.1,0-2.4-0.5-2.4-2.5v-5.4h3.5
		v-4H111V9.8h-5.5v5.1h-2.4v4h2.4v6.3c0,3.5,1.6,6,5.7,6c1.2,0,2.3-0.2,3-0.3L114.9,26.5L114.9,26.5z M51.8,30.3
		c1.6,0.5,3.9,0.9,6.4,0.9c4.7,0,9.5-1.7,9.5-6.9c0-7.1-9.8-6.1-9.8-9c0-1.5,1.5-1.8,3-1.8c2.1,0,4.7,1,5.2,1.2l0.4-4.9
		c-1.4-0.5-3.6-0.8-5.7-0.8c-4.7,0-9.3,1.8-9.3,6.5c0,7,9.8,5.5,9.8,9.2c0,1.4-1.4,2-3.2,2c-2.5,0-4.8-1.2-5.8-1.7L51.8,30.3
		L51.8,30.3z M173.1,22.7c0,2.6,1.5,4.3,3.4,4.3c1.7,0,3.4-1.6,3.4-4.1c0-2.5-1.5-4.2-3.4-4.2C174.5,18.8,173.1,20.5,173.1,22.7
		L173.1,22.7z M131.5,22.7c0,2.6,1.5,4.3,3.4,4.3c1.7,0,3.4-1.6,3.4-4.1c0-2.5-1.5-4.2-3.4-4.2C132.9,18.8,131.5,20.6,131.5,22.7
		L131.5,22.7z M82.3,15.2c-0.4-0.1-1.9-0.6-4-0.6c-5,0-8.7,3.1-8.7,8.3c0,4.7,3.4,8.3,8.5,8.3c2.2,0,3.8-0.6,4.2-0.7l-0.3-4.7
		c-0.4,0.2-1.5,0.8-2.8,0.8c-2.2,0-3.9-1.6-3.9-3.8c0-2.3,1.8-3.9,3.9-3.9c1.2,0,2.3,0.6,2.7,0.8L82.3,15.2L82.3,15.2z M209.1,30.9
		h5.5v-7.4h0.1l4.9,7.4h6.2l-5.9-8.5l5.8-7.5h-6.2l-4.8,6.6h-0.1V8.4h-5.5V30.9L209.1,30.9z M189,30.9h5.4v-8.2
		c0-1.9,1.3-3.3,2.9-3.3c1.9,0,2.9,1.2,2.9,3.3v8.2h5.4v-9.6c0-3.6-2.3-6.7-6.6-6.7c-2.9,0-4.3,1.5-5,2.2h-0.1l-0.1-1.8H189V30.9
		L189,30.9z M120.4,6.8c-1.7,0-3.1,1.4-3.1,3.1c0,1.7,1.4,3.1,3.1,3.1c1.7,0,3.1-1.4,3.1-3.1C123.5,8.2,122.1,6.8,120.4,6.8
		L120.4,6.8z M159.5,22.9c0-2.1-1.2-4-3.3-4c-1.9,0-3.4,1.6-3.4,4c0,2.4,1.2,4,3.4,4C158.1,26.9,159.5,25.3,159.5,22.9L159.5,22.9z"
		/>
</g>
</svg>
