<?xml version="1.0" encoding="utf-8"?>
<!-- Generator: Adobe Illustrator 18.0.0, SVG Export Plug-In . SVG Version: 6.00 Build 0)  -->
<!DOCTYPE svg PUBLIC "-//W3C//DTD SVG 1.1//EN" "http://www.w3.org/Graphics/SVG/1.1/DTD/svg11.dtd">
<svg version="1.1" id="Layer_1" xmlns="http://www.w3.org/2000/svg" xmlns:xlink="http://www.w3.org/1999/xlink" x="0px" y="0px"
	 viewBox="0 0 205.8 97" enable-background="new 0 0 205.8 97" xml:space="preserve">
<g>
	<path fill="#010101" d="M93.7,41c-1.3,0-2,0.5-2,1.6v25c0,6.1,4.2,9.2,12.5,9.2c6.6,0,11.6-1.9,15.1-5.5c3.1-3.3,4.6-7.6,4.6-13
		c0-5.3-1.8-9.5-5.3-12.6c-3.6-3.1-8.7-4.6-15.3-4.6 M119.2,37.9c13.5,2.2,20.2,9.2,20.2,20.9c0,6.7-2.7,12.1-8,16.2
		c-5.3,4.1-12.3,6.1-20.8,6.1c-3.1,0-26.7,0.1-32.9,0.1V2.7c4.1,0,14.1,0.4,19.5,0.3c28.8-0.3,37.1,6.3,37.1,18.8
		C134.3,29.7,129.2,35,119.2,37.9 M91.8,33.3c0,1.7,0.2,2.8,0.7,3.2c0.5,0.4,1.8,0.6,4,0.6h2c13.9,0,20.9-4.8,20.9-14.5
		c0-10.3-6.3-15.5-18.8-15.5c-3.4,0-5.6,0.3-6.8,1c-1.4,0.8-2.1,2.4-2.1,4.9V33.3z"/>
	<path fill="#010101" d="M172,20.8c3.6,0,7,0.5,10.3,1.4c4.4,1.2,6.5,3,6.5,5.3c0,5.9-1.3,8.8-3.9,8.8c-1.3,0-2.6-1.1-3.9-3.2
		c-0.1-0.2-0.4-0.7-0.7-1.3c-3.2-5.5-6.4-8.2-9.8-8.2c-5.1,0-9.1,2.8-12,8.3c-2.2,4.2-3.3,8.5-3.3,13c0,5.6,1.4,10.3,4.3,14.2
		c3.1,4.1,7.3,6.5,12.7,7.1c1,0.1,4.2,0.5,11.1-1.9c1.5-0.5,2.9-1.3,4.3-2c0.7-0.4,2.2-0.6,2.4,0.5c0.2,1.2-0.8,2.5-1.6,3.3
		c-1.3,1.3-5.8,5.5-17.4,6.3c-0.5,0-1,0.1-1.5,0.1c-8.8,0-15.7-2.7-20.6-8.1c-4.3-4.7-6.5-10.5-6.5-17.4c0-7.3,2.4-13.3,7.3-18.1
		C155.2,23.5,162.6,20.8,172,20.8"/>
	<path fill="#010101" d="M194.1,71.2h11.6l-0.1-47.3c0,0-2.1,0-5.5-0.3c-2.5-0.2-6-0.4-6-0.4"/>
	<path fill="#010101" d="M194.1,11.5c0-3.5,2.5-6.4,5.6-6.4c3.1,0,5.6,2.9,5.6,6.4c0,3.5-2.5,6.4-5.6,6.4
		C196.6,17.9,194.1,15,194.1,11.5"/>
	<path fill="#010101" d="M76.2,94c0,2,1.7,3,3.8,3c1.8,0,3.9-0.8,3.9-2.8c0-1.7-1.4-2.2-2.8-2.5c-1.4-0.3-2.8-0.5-2.8-1.4
		c0-0.8,1-0.9,1.6-0.9c0.8,0,1.6,0.3,1.8,1.2h2c-0.2-1.9-1.8-2.7-3.6-2.7c-1.6,0-3.6,0.6-3.6,2.5c0,1.8,1.4,2.3,2.8,2.6
		c1.4,0.3,2.8,0.4,2.8,1.4c0.1,1-1.2,1.1-1.9,1.1c-1,0-1.9-0.4-2-1.5"/>
	<path fill="#010101" d="M90,95.5c-1.7,0-2.5-1.6-2.5-3.1c0-1.5,0.8-3,2.5-3c1.7,0,2.5,1.6,2.5,3C92.4,94,91.7,95.5,90,95.5 M90,97
		c2.8,0,4.4-1.9,4.4-4.6c0-2.7-1.6-4.6-4.4-4.6c-2.8,0-4.4,1.9-4.4,4.6C85.6,95.1,87.2,97,90,97"/>
	<path fill="#010101" d="M96.6,96.8h1.9v-5.2c0-1.4,0.9-2.2,1.9-2.2c1.2,0,1.5,0.6,1.5,1.8v5.6h1.9v-5.1c0-1.5,0.6-2.3,1.9-2.3
		c1.5,0,1.6,1,1.6,2.3v5.1h1.9v-6c0-2.1-1.1-2.9-2.9-2.9c-1.3,0-2.1,0.6-2.7,1.4c-0.4-1-1.4-1.4-2.4-1.4c-1.4,0-2.1,0.6-2.7,1.4h0
		v-1.2h-1.8"/>
	<path fill="#010101" d="M115.7,95.5c-1.7,0-2.5-1.6-2.5-3.1c0-1.5,0.8-3,2.5-3c1.7,0,2.5,1.6,2.5,3C118.2,94,117.5,95.5,115.7,95.5
		 M115.7,97c2.8,0,4.4-1.9,4.4-4.6c0-2.7-1.6-4.6-4.4-4.6c-2.8,0-4.4,1.9-4.4,4.6C111.4,95.1,113,97,115.7,97"/>
	<path fill="#010101" d="M121.9,94c0,2,1.7,3,3.8,3c1.8,0,3.9-0.8,3.9-2.8c0-1.7-1.4-2.2-2.8-2.5c-1.4-0.3-2.8-0.5-2.8-1.4
		c0-0.8,1-0.9,1.6-0.9c0.8,0,1.6,0.3,1.8,1.2h2c-0.2-1.9-1.8-2.7-3.6-2.7c-1.6,0-3.6,0.6-3.6,2.5c0,1.8,1.4,2.3,2.8,2.6
		c1.4,0.3,2.8,0.4,2.8,1.4c0.1,1-1.2,1.1-1.9,1.1c-1,0-1.9-0.4-2-1.5"/>
	<path fill="#010101" d="M132.3,82.5c0-1.8,0.8-3.7,2.8-3.7c2.2,0,3,1.9,3,3.7c0,1.8-0.8,3.7-3,3.7
		C133.1,86.2,132.3,84.3,132.3,82.5 M139.3,74.8h-1.1v5h0c-0.5-1.2-1.7-1.9-3-1.9c-2.6,0-3.9,2.1-3.9,4.6c0,2.5,1.3,4.6,3.9,4.6
		c1.3,0,2.6-0.8,3.1-1.9h0v1.6h1V74.8z"/>
	<path fill="#010101" d="M141.9,86.8h1.1v-8.7h-1.1V86.8z M141.9,76.5h1.1v-1.7h-1.1V76.5z"/>
	<path fill="#010101" d="M148.9,78.1h-1.7v-0.8c0-0.9,0-1.7,1.2-1.7l0.8,0.1v-0.9l-0.9-0.1c-1.7,0-2.1,1-2.1,2.5v0.8h-1.5V79h1.5
		v7.8h1.1V79h1.7"/>
	<path fill="#010101" d="M157.8,82.7c0.1-2.4-1-4.9-3.8-4.9c-2.8,0-3.9,2.3-3.9,4.6c0,2.5,1.2,4.6,3.9,4.6c2.2,0,3.3-1.1,3.8-3.1
		h-1.1c-0.3,1.3-1.2,2.2-2.7,2.2c-2,0-2.8-1.9-2.9-3.4 M151.2,81.9c0.2-1.6,1.1-3.1,2.9-3.1c1.7,0,2.7,1.5,2.8,3.1H151.2z"/>
	<path fill="#010101" d="M159.9,86.8h1.1v-4.6c0-1.8,1.3-3.2,3.2-3.1v-1c-1.6-0.1-2.7,0.8-3.3,2.1h0v-2h-1"/>
	<path fill="#010101" d="M172.7,82.7c0.1-2.4-1-4.9-3.8-4.9c-2.8,0-3.9,2.3-3.9,4.6c0,2.5,1.2,4.6,3.9,4.6c2.2,0,3.3-1.1,3.8-3.1
		h-1.1c-0.3,1.3-1.2,2.2-2.7,2.2c-2,0-2.8-1.9-2.9-3.4 M166.1,81.9c0.2-1.6,1.1-3.1,2.9-3.1c1.7,0,2.7,1.5,2.8,3.1H166.1z"/>
	<path fill="#010101" d="M174.7,86.8h1.1v-5c0-1.7,1-3,2.7-3c1.7,0,2.2,1.1,2.2,2.6v5.4h1.1v-5.6c0-2.1-0.7-3.3-3.2-3.3
		c-1.2,0-2.4,0.7-2.8,1.8h0v-1.5h-1.1"/>
	<path fill="#010101" d="M186.1,75.5H185v2.6h-1.5V79h1.5v5.9c0,1.5,0.5,2,1.9,2l0.9,0V86l-0.9,0.1c-0.8-0.1-0.9-0.5-0.9-1.2V79h1.8
		v-0.9h-1.8"/>
	<path fill="#010101" d="M197.2,82.7c0.1-2.4-1-4.9-3.8-4.9c-2.8,0-3.9,2.3-3.9,4.6c0,2.5,1.2,4.6,3.9,4.6c2.2,0,3.3-1.1,3.8-3.1
		h-1.1c-0.3,1.3-1.2,2.2-2.7,2.2c-2,0-2.8-1.9-2.9-3.4 M190.6,81.9c0.2-1.6,1.1-3.1,2.9-3.1c1.7,0,2.7,1.5,2.8,3.1H190.6z"/>
	<path fill="#010101" d="M205.5,90.7c-0.1-1.9-1.4-2.8-3.2-2.8c-1.5,0-3.3,0.7-3.3,2.4c0,1.5,1,1.9,2.4,2.3l1.4,0.3
		c1,0.2,1.9,0.6,1.9,1.6c0,1.2-1.4,1.6-2.4,1.6c-1.4,0-2.5-0.7-2.5-2.2h-1.1c0.2,2.1,1.5,3.1,3.6,3.1c1.6,0,3.5-0.7,3.5-2.6
		c0-1.5-1.3-2.2-2.5-2.4l-1.4-0.3c-0.7-0.2-1.8-0.5-1.8-1.5c0-1.1,1.1-1.5,2-1.5c1.2,0,2.2,0.6,2.3,1.9"/>
	<path fill="#E12228" d="M0.6,70.4c2.7-8,10.3-12.4,17-16.8c4.9-3.2,9.9-6.2,14.9-9.4c1.8-1.1,3.5-2.3,5.3-3.4
		c4.2-2.7,7.6-6.5,10-10.8c1.2-2.2,2.3-4.5,3.2-6.8c1.4-3.2,2.5-7.4,5.8-9c2.4-1.2,5.5-0.5,7.3,1.4c1.8,1.9,2.2,4.6,1.7,7.1
		c-1,5.2-4,9.9-7.8,13.6c-2.2,2.1-4.7,3.7-7.4,5.3c-3.5,2.1-7,4.1-10.5,6.2c-4.6,2.7-9.2,5.3-13.5,8.4c-4.3,3.2-8.3,6.7-12.1,10.5
		c-2.8,2.9-4.5,6.3-6.3,9.8c-0.7,1.3-1.3,3.1-2.5,4c-0.8,0.6-2.2,0.8-3.1,0.2C-0.5,78.8-0.3,73.5,0.6,70.4"/>
	<path fill="#0B9146" d="M57.9,72.7c-2.2-1.7-1.4-4.7-1.6-7.1c-0.2-2.8-0.7-6-2-8.6c-1.4-2.8-4.4-3.4-6.9-4.9
		c-2.3-1.4-2.1-4.2,0.2-5.5c4.8-2.6,10.4,0.5,13,4.8c1.6,2.7,2.6,5.7,3.6,8.7c1,3,2.3,6.9,0.7,9.9C63.9,72.3,60.3,74.5,57.9,72.7"/>
	<path fill="#046CB2" d="M39.6,47.5C28.5,43,16.9,34.6,15.7,21.7c-0.3-3.3,0.2-6.6,1.1-9.8c0.7-2.7,1.5-5.5,2.9-7.9
		c2.3-4.2,7.9-5.2,11.8-2.5c4.6,3.1,1.7,8.8,0.6,13c-0.7,2.8-1.4,5.7-1.9,8.6c-0.5,2.8-0.5,5.8,0.4,8.5c0.8,2.3,2.2,4.3,4,5.9
		c2.1,1.7,4.8,2.6,7.2,3.8c1.7,0.8,5.1,1.9,4,4.5C44.8,48.2,41.6,48,39.6,47.5"/>
	<path fill="#F8C218" d="M14.3,78.7c0.3,1.1,1.3,2.3,4.2,2.4c5.2,0.3,10.6-0.4,15.8-1.5c8.8-1.8,12.5-4.2,12.5-4.2s5.4-2.8,5.1-10.6
		c-0.3-7.8-5.5-11.3-5.5-11.3s-2.1-1.4-5.6-0.2c-2.4,0.8-9,4.6-13.3,7.2c-2.3,1.4-4.6,3.3-6.6,5.3c-1.9,1.9-4.2,4.5-5.7,8
		c-0.2,0.6-0.4,1.1-0.6,1.5C14.4,76.3,14.1,77.7,14.3,78.7"/>
</g>
</svg>
