<?xml version="1.0" encoding="utf-8"?>
<!-- Generator: Adobe Illustrator 18.0.0, SVG Export Plug-In . SVG Version: 6.00 Build 0)  -->
<!DOCTYPE svg PUBLIC "-//W3C//DTD SVG 1.1//EN" "http://www.w3.org/Graphics/SVG/1.1/DTD/svg11.dtd">
<svg version="1.1" id="Layer_1" xmlns="http://www.w3.org/2000/svg" xmlns:xlink="http://www.w3.org/1999/xlink" x="0px" y="0px"
	 viewBox="0 0 30.4 33.4" enable-background="new 0 0 30.4 33.4" xml:space="preserve">
<g>
	<g>
		<path fill="#474747" d="M24.2,28.4H0.7c-0.4,0-0.7-0.3-0.7-0.7V12.6c0-0.4,0.3-0.7,0.7-0.7h1.9V0.7C2.6,0.3,2.9,0,3.3,0h18.7
			c0.4,0,0.7,0.3,0.7,0.7v11h1.6c0.4,0,0.7,0.3,0.7,0.7v15.4C24.9,28.1,24.6,28.4,24.2,28.4z"/>
	</g>
	<g>
		<g>
			<path fill="#FFFFFF" d="M16.1,19.7c-0.4,0-0.7-0.3-0.7-0.7v-1.2h-2.1c-0.4,0-0.7-0.3-0.7-0.7v-2.7h-2.1c-0.4,0-0.7-0.3-0.7-0.7
				v-2.3H8.3c-0.4,0-0.7-0.3-0.7-0.7V6.3c0-0.4,0.3-0.7,0.7-0.7C8.7,5.6,9,5.9,9,6.3V10h1.4c0.4,0,0.7,0.3,0.7,0.7V13h2.1
				c0.4,0,0.7,0.3,0.7,0.7v2.7h2.1c0.4,0,0.7,0.3,0.7,0.7V19C16.8,19.4,16.4,19.7,16.1,19.7z"/>
		</g>
		<g>
			<circle fill-rule="evenodd" clip-rule="evenodd" fill="#FFFFFF" cx="16.5" cy="20.8" r="2.9"/>
		</g>
	</g>
	<g>
		<g>
			<circle fill="#474747" cx="25.6" cy="28.6" r="4.8"/>
		</g>
		<g>
			<path fill="#FFFFFF" d="M26.4,29.8h-1.6L24.4,31h-0.8l1.6-4.5H26l1.6,4.5h-0.8L26.4,29.8z M25.6,27.3c0,0-0.1,0.4-0.2,0.7
				L25,29.2h1.2L25.8,28C25.7,27.7,25.6,27.3,25.6,27.3L25.6,27.3z"/>
		</g>
	</g>
</g>
</svg>
