<?xml version="1.0" encoding="utf-8"?>
<!-- Generator: Adobe Illustrator 18.0.0, SVG Export Plug-In . SVG Version: 6.00 Build 0)  -->
<!DOCTYPE svg PUBLIC "-//W3C//DTD SVG 1.1//EN" "http://www.w3.org/Graphics/SVG/1.1/DTD/svg11.dtd">
<svg version="1.1" id="Layer_1" xmlns="http://www.w3.org/2000/svg" xmlns:xlink="http://www.w3.org/1999/xlink" x="0px" y="0px"
	 viewBox="0 0 11.3 12.2" enable-background="new 0 0 11.3 12.2" xml:space="preserve">
<path fill="#FFFFFF" d="M11.1,9.5L11,9.4C10.8,9,8.5,8.3,8.3,8.3l-0.2,0c-0.3,0.1-0.7,0.4-1.4,1c-0.8-0.4-2-1.4-2.5-2
	C3.6,6.6,2.9,5.5,2.6,4.7C3.5,4,3.8,3.6,3.9,3.3c0-0.2-0.4-2.6-0.8-2.8L2.9,0.4C2.6,0.2,2.2-0.1,1.8,0C1.7,0,1.6,0.1,1.5,0.1
	c-0.3,0.2-1,0.7-1.4,1.4C-0.1,1.9-0.2,5.8,2.7,9c2.8,3.2,6.3,3.3,6.8,3.2l0,0l0,0c0.7-0.3,1.3-0.9,1.5-1.2
	C11.5,10.5,11.2,9.9,11.1,9.5z"/>
</svg>
