<?xml version="1.0" encoding="utf-8"?>
<!-- Generator: Adobe Illustrator 18.0.0, SVG Export Plug-In . SVG Version: 6.00 Build 0)  -->
<!DOCTYPE svg PUBLIC "-//W3C//DTD SVG 1.1//EN" "http://www.w3.org/Graphics/SVG/1.1/DTD/svg11.dtd">
<svg version="1.1" id="Layer_1" xmlns="http://www.w3.org/2000/svg" xmlns:xlink="http://www.w3.org/1999/xlink" x="0px" y="0px"
	 viewBox="0 0 110.4 20" enable-background="new 0 0 110.4 20" xml:space="preserve">
<g>
	<polygon fill-rule="evenodd" clip-rule="evenodd" fill="#FFFFFF" points="13.5,0 24.2,0 23.6,2.4 16.4,2.4 15.6,5.8 22.4,5.8 
		21.9,8.2 15.1,8.2 14.2,12.1 21.7,12.1 21.2,14.5 10.3,14.4 13.5,0 	"/>
	<path fill-rule="evenodd" clip-rule="evenodd" fill="#FFFFFF" d="M30.3,13.3c-0.9,0.9-2.1,1.5-3.8,1.5c-1.1,0-3.1-0.8-3.1-2.2
		c0-0.6,0.1-1.3,0.1-1.6L25,4.5l3.3,0l-1.3,6c-0.2,1.1-0.2,2.3,1.5,2.3c1,0,2.1-0.9,2.5-2.3l1.3-6l3.3,0l-1.8,8.2
		c-0.1,0.6-0.2,1.2-0.3,1.8l-3.3,0L30.3,13.3L30.3,13.3z"/>
	<path fill-rule="evenodd" clip-rule="evenodd" fill="#FFFFFF" d="M40.7,4.5l-0.3,1.8h0c1.1-1.6,2.6-2,4.2-1.9L44,7.1l-1.4,0
		c-0.6,0-1.3,0.3-1.8,0.7c-0.5,0.6-0.7,1.1-0.8,1.8l-1.1,5l-3.3,0l1.8-8c0.1-0.4,0.2-1.3,0.3-2L40.7,4.5L40.7,4.5z"/>
	<path fill-rule="evenodd" clip-rule="evenodd" fill="#FFFFFF" d="M47.8,9.6c0.4-1.6,1.1-3.3,3.1-3.3c2,0,2,1.7,1.6,3.3
		c-0.4,1.6-1.1,3.3-3.1,3.3C47.4,12.9,47.5,11.2,47.8,9.6L47.8,9.6z M55.9,9.6c0.7-3.2-1-5.3-4.6-5.3c-3.6,0-6.3,2.1-7,5.3
		c-0.7,3.2,1,5.3,4.6,5.3C52.6,14.9,55.2,12.8,55.9,9.6L55.9,9.6z"/>
	<path fill-rule="evenodd" clip-rule="evenodd" fill="#FFFFFF" d="M59.4,17.5L58.7,20h51.7C103.4,18.4,82.1,17.6,59.4,17.5z"/>
	<path fill-rule="evenodd" clip-rule="evenodd" fill="#FFFFFF" d="M54.8,17.5C30.7,17.5,7.3,18.4,0,20h54.2L54.8,17.5z"/>
	<path fill-rule="evenodd" clip-rule="evenodd" fill="#FFFFFF" d="M76.9,8.2c0.2-0.8,0-1.8-1.3-1.8c-1.4,0-2,2.4-2.2,3.2
		c-0.1,0.9-0.7,3.5,0.8,3.5c1.3,0,1.9-1.1,2.1-2l3.2,0c-0.7,2.6-2.7,4-5.8,3.9c-3.3,0-4.3-2.7-3.8-5.3c0.6-2.7,2.8-5.3,6.1-5.3
		c2.8,0,4.6,1.5,4,3.8L76.9,8.2L76.9,8.2z"/>
	<path fill-rule="evenodd" clip-rule="evenodd" fill="#FFFFFF" d="M87.2,10c-0.3,1.2-0.7,3-2.6,3c-0.9,0-1.5-0.6-1.3-1.4
		C83.7,10,86.1,10,87.2,10L87.2,10z M84.8,7.5c0.1-0.5,0.6-1.4,1.8-1.4c1.2,0,1.3,0.8,1.2,1.2l-0.2,0.9c-1.3,0-3,0-4.4,0.5
		c-2.2,0.8-2.9,2.5-3.1,3.2c-0.4,2,0.9,3,2.9,3.1c1.5,0,2.8-0.5,3.8-1.6h0c-0.1,0.4-0.2,0.9-0.2,1.3l3,0c0-0.3,0-0.6,0.1-1.1L91,8.2
		c0.7-3-1.7-3.8-3.9-3.8c-1.2,0-2.4,0.2-3.4,0.6c-1,0.5-1.8,1.2-2.1,2.5L84.8,7.5L84.8,7.5z"/>
	<path fill-rule="evenodd" clip-rule="evenodd" fill="#FFFFFF" d="M96.7,4.7l-0.3,1.8h0c1.1-1.6,2.6-2,4.2-1.9L100,7.3l-1.4,0
		c-0.6,0-1.3,0.3-1.8,0.7c-0.5,0.6-0.7,1.1-0.8,1.8l-1.1,5l-3.3,0l1.8-8c0.1-0.4,0.2-1.3,0.3-2L96.7,4.7L96.7,4.7z"/>
	<path fill-rule="evenodd" clip-rule="evenodd" fill="#FFFFFF" d="M60.7,9.6c0.3-1.4,1.3-3.3,3.1-3.3c2.1,0,2,1.8,1.6,3.3
		c-0.3,1.5-1,3.3-3.1,3.3C60.6,12.9,60.4,11,60.7,9.6L60.7,9.6z M61.8,4.6l-3.3,0c-0.1,0.7-0.2,1.3-0.3,2L54.8,20l3.3,0l1.8-6.8h0
		c0.4,1.2,1.6,1.7,3,1.7c3.2,0,5.4-2.7,5.9-5.3c0.6-2.7-0.6-5.3-4-5.3c-1.1,0-2.5,0.6-3.3,1.5h0L61.8,4.6L61.8,4.6z"/>
</g>
</svg>
