<?xml version="1.0" encoding="utf-8"?>
<!-- Generator: Adobe Illustrator 18.0.0, SVG Export Plug-In . SVG Version: 6.00 Build 0)  -->
<!DOCTYPE svg PUBLIC "-//W3C//DTD SVG 1.1//EN" "http://www.w3.org/Graphics/SVG/1.1/DTD/svg11.dtd">
<svg version="1.1" id="Layer_1" xmlns="http://www.w3.org/2000/svg" xmlns:xlink="http://www.w3.org/1999/xlink" x="0px" y="0px"
	 viewBox="0 0 51.1 17.2" enable-background="new 0 0 51.1 17.2" xml:space="preserve">
<g>
	<path fill-rule="evenodd" clip-rule="evenodd" fill="#FFFFFF" d="M0,16.5c0.2-0.4,0.4-0.8,0.6-1.2c2.1-4,4.1-8,6.2-12.1
		c0.5-0.9,1-1.9,1.4-2.8c0.1-0.1,0.1-0.1,0.2-0.1c2,0,4,0,6,0c0,0,0.1,0,0.1,0c0,5.4,0,10.8,0,16.2c-1.3,0-2.7,0-4,0
		c0-0.1,0-0.2,0-0.2c0-1.2,0-2.4,0-3.6c0-0.2-0.1-0.3-0.3-0.3c-1.3,0-2.7,0-4,0c-0.1,0-0.2,0-0.3,0.2c-0.6,1.2-1.3,2.5-1.9,3.7
		c-0.1,0.1-0.1,0.2-0.3,0.2C2.6,16.5,1.3,16.5,0,16.5C0,16.5,0,16.5,0,16.5z M10.7,3.8C10.6,3.8,10.6,3.8,10.7,3.8
		c-1,1.8-1.9,3.6-2.9,5.4c0.1,0,0.2,0,0.2,0c0.8,0,1.6,0,2.4,0c0.2,0,0.2-0.1,0.2-0.2c0-1.7,0-3.3,0-5C10.7,3.9,10.7,3.9,10.7,3.8z"
		/>
	<path fill-rule="evenodd" clip-rule="evenodd" fill="#FFFFFF" d="M42,17.2c-0.4-0.1-0.7-0.1-1.1-0.2c-1.3-0.2-2.6-0.7-3.8-1.4
		c0.4-1.3,0.9-2.6,1.3-4c0.1,0.1,0.3,0.2,0.4,0.3c1,0.7,2.1,1,3.3,1.2c0.5,0.1,1,0,1.5-0.2c0.9-0.4,1.2-1.5,0.4-2.3
		c-0.2-0.2-0.5-0.4-0.8-0.6c-0.7-0.5-1.3-1-1.8-1.7c-0.9-1.1-1.2-2.3-1-3.7c0.4-2.5,2.1-3.9,4.4-4.6c0.4-0.1,0.8-0.1,1.2-0.2
		c0.4,0,0.7,0,1.1,0c0.1,0,0.1,0,0.2,0c1,0.1,1.9,0.3,2.8,0.7c0.4,0.1,0.7,0.3,1,0.5c0,0,0,0,0,0c0,0,0,0.1,0,0.1
		c-0.2,0.5-0.4,1.1-0.6,1.6c-0.2,0.7-0.5,1.4-0.7,2.1c-0.2-0.1-0.3-0.3-0.5-0.4c-0.6-0.3-1.2-0.6-1.8-0.7c-0.6-0.1-1.2-0.2-1.7,0.1
		c-0.7,0.3-1,0.8-0.9,1.4c0,0.4,0.2,0.7,0.4,0.9c0.3,0.3,0.6,0.6,0.9,0.9C46.9,7.8,47.5,8.3,48,9c0.8,1.1,1,2.3,0.7,3.6
		c-0.5,2.3-2,3.7-4.2,4.4c-0.4,0.1-0.8,0.2-1.3,0.3C42.8,17.2,42.4,17.2,42,17.2z"/>
	<path fill-rule="evenodd" clip-rule="evenodd" fill="#FFFFFF" d="M17.8,16.5c0-5.4,0-10.8,0-16.2c1.3,0,2.6,0,3.9,0
		c0,4,0.1,7.9,0.1,11.9c0,0,0,0,0,0c0,0,0.1-0.1,0.1-0.1c1.3-2.5,2.5-5,3.8-7.5c0.7-1.4,1.4-2.7,2.1-4.1c0.1-0.1,0.1-0.2,0.3-0.2
		c1.2,0,2.5,0,3.7,0c0.1,0,0.1,0,0.2,0c-0.1,0.1-0.1,0.3-0.2,0.4c-1.2,2.4-2.5,4.8-3.8,7.1c-1.4,2.8-2.9,5.5-4.3,8.3
		c-0.2,0.4-0.4,0.5-0.8,0.5c-1.7,0-3.3,0-5,0C18,16.5,17.9,16.5,17.8,16.5z"/>
	<path fill-rule="evenodd" clip-rule="evenodd" fill="#FFFFFF" d="M38.5,0.3c-0.1,0.3-0.2,0.6-0.3,0.9c-1,3-2,6-3,9
		c-0.7,2.1-1.4,4.1-2.1,6.2c0,0.1-0.1,0.2-0.2,0.2c-1.2,0-2.5,0-3.7,0c0,0-0.1,0-0.1,0c0.1-0.4,0.3-0.8,0.4-1.2
		c1.1-3.1,2.2-6.3,3.3-9.4C33.4,4,34,2.2,34.6,0.4c0-0.1,0.1-0.2,0.2-0.2c1.2,0,2.4,0,3.5,0C38.4,0.2,38.5,0.2,38.5,0.3z"/>
</g>
</svg>
