<?xml version="1.0" encoding="utf-8"?>
<!-- Generator: Adobe Illustrator 18.0.0, SVG Export Plug-In . SVG Version: 6.00 Build 0)  -->
<!DOCTYPE svg PUBLIC "-//W3C//DTD SVG 1.1//EN" "http://www.w3.org/Graphics/SVG/1.1/DTD/svg11.dtd">
<svg version="1.1" id="Layer_1" xmlns="http://www.w3.org/2000/svg" xmlns:xlink="http://www.w3.org/1999/xlink" x="0px" y="0px"
	 viewBox="0 0 63.4 18.2" enable-background="new 0 0 63.4 18.2" xml:space="preserve">
<g>
	<path fill-rule="evenodd" clip-rule="evenodd" fill="#FFFFFF" d="M61.1,5.5h0.3V4.8h0.1c0.2,0,0.3,0.1,0.5,0.4l0.1,0.3h0.4
		l-0.2-0.3c-0.2-0.3-0.2-0.3-0.4-0.4c0.3,0,0.5-0.2,0.5-0.5c0-0.3-0.2-0.5-0.6-0.5h-0.5h-0.3V5.5L61.1,5.5z M61.5,4.5V4h0.1h0.2
		c0.2,0,0.3,0.1,0.3,0.2c0,0.2-0.1,0.2-0.4,0.2l-0.1,0H61.5L61.5,4.5z M61.8,3c-0.9,0-1.6,0.7-1.6,1.6c0,0.9,0.7,1.6,1.6,1.6
		c0.9,0,1.6-0.7,1.6-1.6C63.4,3.7,62.7,3,61.8,3L61.8,3z M61.8,3.3c0.7,0,1.3,0.6,1.3,1.3c0,0.7-0.6,1.3-1.3,1.3
		c-0.7,0-1.3-0.6-1.3-1.3C60.6,3.9,61.1,3.3,61.8,3.3L61.8,3.3z"/>
	<g>
		<path fill-rule="evenodd" clip-rule="evenodd" fill="#FFFFFF" d="M27.2,7c0.1-0.2,0.2-0.5,0.2-0.7c0-0.3-0.2-0.5-0.4-0.7
			c-0.2-0.1-0.5-0.1-0.8-0.1c-0.3,0.1-0.5,0.2-0.7,0.4c-0.2,0.2-0.3,0.5-0.4,0.8c-0.1,0.3-0.3,0.6-0.4,0.9h2.2
			C27,7.4,27.1,7.2,27.2,7z"/>
		<path fill-rule="evenodd" clip-rule="evenodd" fill="#FFFFFF" d="M60.1,3h-9.5l-1.2,0.5L49.5,3h-5l1.1-3h-4.3l-3.8,3h-3.6
			l-2.7,1.7c-0.2-0.3-0.5-0.6-0.8-0.9C30,3.4,29.6,3.1,28.9,3c-0.6-0.2-1.5-0.3-2.4-0.2c-0.9,0-1.9,0.2-3,0.6
			c-1.1,0.5-2.3,1.2-3.3,2.2l2-5.3h-5l-3.4,2.3l0.7-2.3h-5L5.9,2.7L0,18.2h4.8l3.6-2.5l-0.9,2.6h4.9l2.6-2.1
			c0.1,0.4,0.4,0.7,1.1,1.1c0.6,0.4,1.6,0.8,2.8,0.9c1.2,0.1,2.5-0.1,3.6-0.5c1.1-0.4,2-1.1,2.6-1.5c0.6-0.4,0.8-0.5,1-0.7l-1,2.6
			h4.9l3.3-2.7c-0.1,0.5,0.1,1,0.4,1.4c0.3,0.4,0.9,0.8,1.7,1c0.8,0.2,1.8,0.3,2.7,0.2c0.9-0.1,1.7-0.3,2.6-0.7
			c0.8-0.4,1.7-1.1,2.4-1.9L42,17.9h9.9l4-2.9l1-3.4h-3.8l5.7-5.6L60.1,3z M16.4,15.1h-4.4l2.2-6h-3.2l-2.3,6H4.3L9.9,0.5h4.3
			l-2,5.4h3.1l2.1-5.4h4.4L16.4,15.1z M28.2,13.1c-0.4,0.6-1,1.1-1.6,1.4c-0.6,0.3-1.4,0.5-2,0.6c-0.7,0.1-1.3,0.1-1.9,0
			c-0.6,0-1.1-0.1-1.6-0.3c-0.5-0.1-0.8-0.3-1.2-0.6c-0.3-0.3-0.6-0.6-0.7-0.9c-0.1-0.3-0.1-0.5-0.1-0.7c0-0.2,0-0.4,0.2-1.1
			c0.2-0.7,0.6-1.9,1.1-3c0.5-1.1,0.9-2.3,1.4-3.4c0.3-0.3,0.6-0.5,1-0.8c0.3-0.2,0.7-0.4,1-0.6c0.3-0.1,0.6-0.2,0.8-0.3
			c0.3-0.1,0.5-0.2,1.2-0.2c0.7-0.1,1.7-0.1,2.5,0c0.8,0.2,1.5,0.5,1.9,0.8C30.7,4.4,30.9,4.7,31,5c0.1,0.3,0.1,0.7,0,1.2
			c-0.1,0.5-0.4,1.1-0.6,1.8c-0.2,0.7-0.5,1.3-0.7,2h-5.8c-0.2,0.4-0.4,0.8-0.5,1.2c-0.1,0.5-0.1,0.9,0,1.2c0.1,0.3,0.3,0.4,0.5,0.4
			c0.2,0,0.3,0,0.5-0.1c0.1-0.1,0.3-0.1,0.5-0.4c0.2-0.3,0.6-0.8,1-1.4h3.5C29,11.8,28.7,12.5,28.2,13.1z M35.7,7.8l-2.6,7.1h-3.7
			l4.4-11.6h5.6l-1,2.7c-0.7,0-1.3,0-1.8,0.3C36.3,6.6,35.9,7.2,35.7,7.8z M44.5,14.1c-0.5,0.4-1,0.7-1.9,0.9c-0.9,0.1-2.1,0.1-3,0
			c-0.9-0.1-1.4-0.3-1.9-0.6c-0.4-0.3-0.7-0.7-0.7-1.3c-0.1-0.6,0.1-1.4,0.4-2.2l4-10.5h3.7l-1.1,3h5l-1.1,2.9H43l-2.1,5.5
			c-0.1,0.2-0.1,0.4,0,0.6c0.1,0.2,0.3,0.4,0.5,0.4c0.2,0,0.5-0.1,0.8-0.3c0.2-0.2,0.3-0.5,0.4-0.8l1-2.8H47l-1.4,3.8
			C45.4,13.2,45,13.7,44.5,14.1z M52.3,11.9h4.3l-1,2.9h-9.3l1-2.9L53.8,6h-4.4l1.1-2.8h9.1L58.6,6L52.3,11.9z"/>
	</g>
</g>
</svg>
