<?xml version="1.0" encoding="utf-8"?>
<!-- Generator: Adobe Illustrator 18.0.0, SVG Export Plug-In . SVG Version: 6.00 Build 0)  -->
<!DOCTYPE svg PUBLIC "-//W3C//DTD SVG 1.1//EN" "http://www.w3.org/Graphics/SVG/1.1/DTD/svg11.dtd">
<svg version="1.1" id="Layer_1" xmlns="http://www.w3.org/2000/svg" xmlns:xlink="http://www.w3.org/1999/xlink" x="0px" y="0px"
	 viewBox="0 0 23.5 23.5" enable-background="new 0 0 23.5 23.5" xml:space="preserve">
<path fill="#FFFFFF" d="M11.7,0C5.3,0,0,5.3,0,11.7c0,6.5,5.3,11.7,11.7,11.7s11.7-5.3,11.7-11.7C23.5,5.3,18.2,0,11.7,0z
	 M14.2,10.5H12v6h-2v-6H9v-2h1v0c0-1.2,0.5-2.7,1.4-3.1c0.4-0.2,0.9-0.9,1.2-0.9H14v2h-0.7c-0.3,0-0.8,0.8-0.9,1
	c-0.1,0.1-0.4,1-0.4,1.3V8.5h2.5L14.2,10.5z"/>
</svg>
