<?xml version="1.0" encoding="utf-8"?>
<!-- Generator: Adobe Illustrator 18.0.0, SVG Export Plug-In . SVG Version: 6.00 Build 0)  -->
<!DOCTYPE svg PUBLIC "-//W3C//DTD SVG 1.1//EN" "http://www.w3.org/Graphics/SVG/1.1/DTD/svg11.dtd">
<svg version="1.1" id="Layer_1" xmlns="http://www.w3.org/2000/svg" xmlns:xlink="http://www.w3.org/1999/xlink" x="0px" y="0px"
	 viewBox="0 0 211.5 36.2" enable-background="new 0 0 211.5 36.2" xml:space="preserve">
<rect x="0" y="0" fill="#0D7EC3" width="211.5" height="36.2"/>
<path fill="#FFFFFF" d="M202.5,10.1c2.1,1.9,3.4,4.6,3.4,7.6c0,4.4-2.8,8.2-6.7,9.6l-3.3-5.6L202.5,10.1z"/>
<path fill="#FFFFFF" d="M185.7,15.3c1.1-4.5,5.1-7.8,10-7.8c2.4,0,4.6,0.8,6.3,2.2l-3.2,5.6H185.7z"/>
<path fill="#FFFFFF" d="M198.3,27.6c-0.9,0.2-1.8,0.4-2.7,0.4c-5.7,0-10.3-4.6-10.3-10.3c0-0.6,0-1.1,0.1-1.6h5.9L198.3,27.6z"/>
<polygon fill="#FFFFFF" points="162.4,26.4 155.8,26.4 152.6,14.7 149.3,26.4 142.8,26.4 148.4,9 156.4,9 "/>
<polygon fill="#FFFFFF" points="108.5,26.4 101.9,26.4 98.7,14.7 95.4,26.4 89,26.4 94.5,9 102.5,9 "/>
<polygon fill="#FFFFFF" points="109.2,26.4 115.2,26.4 115.2,18.3 121.2,26.4 127.2,26.4 127.2,9 121.1,9 121.1,17.9 114.9,9 
	109.2,9 "/>
<g>
	<path fill="#FFFFFF" d="M29.7,8c-5.4,0-9.7,4.4-9.7,9.7c0,5.4,4.4,9.7,9.7,9.7c5.4,0,9.7-4.4,9.7-9.7C39.4,12.4,35.1,8,29.7,8z
		 M29.7,21.1c-1.9,0-3.4-1.5-3.4-3.4c0-1.9,1.5-3.4,3.4-3.4c1.9,0,3.4,1.5,3.4,3.4C33.1,19.6,31.6,21.1,29.7,21.1z"/>
</g>
<path fill="#FFFFFF" d="M19,26c-1.2,0.6-2.7,1-4.1,1c-5.1,0-9.2-4.1-9.2-9.2c0-5.1,4.1-9.2,9.2-9.2c1.5,0,2.9,0.4,4.1,1l0,6.2
	c-0.6-1-2.1-1.6-3.3-1.6c-2,0-3.6,1.6-3.6,3.6c0,2,1.6,3.6,3.6,3.6c1.2,0,2.7-0.6,3.3-1.6L19,26z"/>
<path fill="#FFFFFF" d="M141.9,26c-1.2,0.6-2.7,1-4.1,1c-5.1,0-9.2-4.1-9.2-9.2c0-5.1,4.1-9.2,9.2-9.2c1.5,0,2.9,0.4,4.1,1l0,6.2
	c-0.6-1-2.1-1.6-3.3-1.6c-2,0-3.6,1.6-3.6,3.6c0,2,1.6,3.6,3.6,3.6c1.2,0,2.7-0.6,3.3-1.6V26z"/>
<g>
	<path fill="#FFFFFF" d="M67.9,9c-1.6-0.1-11,0-11,0v17.4h6.2V21h4.7c0,0,4.9-0.9,4.9-5.6C72.7,10.6,69.5,9.1,67.9,9z M65.3,16.7
		h-1.9v-3.4h1.9C67.5,15.1,65.3,16.7,65.3,16.7z"/>
</g>
<g>
	<path fill="#FFFFFF" d="M52.4,20.4c1.4-0.7,3.3-2.2,3.3-5.1c0-4.7-3.2-6.3-4.8-6.3c-1.6-0.1-11,0-11,0v17.4h6.2V21h0.4l3.2,5.5h6.5
		C56.1,26.4,52,20.6,52.4,20.4z M48.3,16.7h-1.9v-3.4h1.9C50.5,15.1,48.3,16.7,48.3,16.7z"/>
</g>
<g>
	<path fill="#FFFFFF" d="M86.2,17.5c1.1,0,2.8-1.6,2.8-4.2C89,9,84.2,9,84.2,9H74v17.4c0,0,9.3,0,10.5,0c1.2,0,5-1,5-4.7
		C89.4,18.1,86.2,17.5,86.2,17.5z M80.1,12.8h1.6c1.9,1.4,0,2.8,0,2.8h-1.6V12.8z M82.2,22.4h-2.2v-3h2.2
		C84.7,20.9,82.2,22.4,82.2,22.4z"/>
</g>
</svg>
