<?xml version="1.0" encoding="utf-8"?>
<!-- Generator: Adobe Illustrator 18.0.0, SVG Export Plug-In . SVG Version: 6.00 Build 0)  -->
<!DOCTYPE svg PUBLIC "-//W3C//DTD SVG 1.1//EN" "http://www.w3.org/Graphics/SVG/1.1/DTD/svg11.dtd">
<svg version="1.1" id="Layer_1" xmlns="http://www.w3.org/2000/svg" xmlns:xlink="http://www.w3.org/1999/xlink" x="0px" y="0px"
	 viewBox="0 0 227 36.5" enable-background="new 0 0 227 36.5" xml:space="preserve">
<g>
	<path fill-rule="evenodd" clip-rule="evenodd" fill="#1F3D73" d="M9.4,0h1.7c1.2,0,5.3,1.1,5.3,1.1h0.7c0.3,0,0.7-0.2,0.9-0.4
		c0.1,0,0.2,0.1,0.4,0.2l-7,4.9c0,0-2.1,1-2.1,2v12.4l-6.9,4.8c0.1-0.7,1-1.3,1-2.2V10.7c0-0.9,6.6-4.4,6.6-5.4c0-1-3.9-1.8-3.9-1.8
		c-1.2,0-1.7,0-3,0C1.9,3.6,0.5,4.3,0,4.3C1.5,3.3,5.5,0,9.4,0z M23.5,0.3c1.1,0,1.7,1.1,3.5,3.5c0.5,0.6,2.6,3.2,2.6,4.4v1
		c0,2.5-6.6,5-6.6,6.1c0,0.7,3.5,0.4,5,1.4c1.5,1,2.1,3.1,2.1,4.2v3c0,1.8-2.5,2.5-5.5,4.8c-1.3,1-5.8,4.1-6.2,4.1
		c0,0-5.2-2.8-7.7-2.8H7.5c-1.4,0-4.8,1.2-5.1,1.2c0,0,5.2-5.1,10.5-5.1h3.5c0.7,0,3.2,1,3.9,1.2V4.8c0-0.2-0.3-0.6-0.7-0.6
		c-1,0-1.7,1.8-1.7,1.9v13.3c0,0.6-2.3,2.4-3.5,3.1c-1.8,1.1-3,2.1-4.1,2.6v-0.3c0,0,1-1.1,1-1.7V8.7c0-0.2,1.6-2.1,5.8-4.6
		C19.5,2.7,22,0.3,23.5,0.3z M21.5,6.3c0,0,2.8,3.1,2.8,4.9c0,1.4-1.1,2-2.8,3V6.3z M21.5,16.7c0.3,0.1,1.9,1,1.9,1.7v10.1
		c-0.4,0.2-0.1,0-0.4,0c-0.6,0-1.5-0.4-1.5-1V16.7z M88.8,12.9L95,16v13.6l-5.9,2.9l-6.3-2.7V15.6L88.8,12.9z M59.9,12.5l3.8,3.8V28
		l1.8,1.8l-2.9,2.8l-3.1-2.9V18.8c-0.1,0-1.9-1.9-2.3-2L55,18.7v9.3l1.6,1.6l-3,2.9l-2.7-2.6V18.2c0,0-1.3-1.1-1.9-1.8l3.7-3.8
		l3.6,3.4L59.9,12.5z M74.4,13l6.9,2.9c-0.3,0.4-2.4,1.9-3.2,2.1c0,0-5.6-2.2-5.7-2.2v11.5l4.7,2.3c0,0,2.7-0.9,3.4-0.9
		c0.1,0,0.2,0,0.4,0V29l-5.4,3.5h-0.7L68,29.4V16.1L74.4,13z M39.7,12.7c4.3,2.1,6.2,2.4,6.2,3.3v11.3l2.7,2.7l-2.6,2.5
		c-1.9-1.5-2.6-2.2-2.6-2.2l-4.7,2.4l-6.4-2.9v-7.4l6.3-3.1l3.4,1.4v-3.1l-5.5-1.9L33.9,16l-0.1-0.5L39.7,12.7z M86.9,15.6l4.1,1.9
		v12.1l-4.1-1.8L86.9,15.6z M36.3,21.8l5.8,2.9v5.5l-5.8-2.7V21.8z M116.5,4.8c0.3,0,1.4,0.4,3.3,1.4c1,0.5,2.9,0.9,2.9,1.8v21.8
		l-5.8,2.7l-6.4-3.1V15.7l6.2-2.7c0.2,0,2.2,0.8,2.2,0.8V9.3l-5.1-2.2c-0.8,0.1-1.8,0.9-2.8,1l0.2-0.9
		C111.2,7.3,115.8,4.8,116.5,4.8z M132.8,12.9l5.7,6.3l-8.4,6.2v1.7c0,0.4,4.9,2.6,4.9,2.6s2.4-1.7,3.5-1c-0.1,0.1-5.9,3.9-5.9,3.9
		l-6.3-2.7V15.9L132.8,12.9z M114.6,15.6l4.2,1.9v12.1h-0.1l-4.1-1.8V15.6z M130.3,15.9l4.2,4.4l-4.2,3.1V15.9z M209.7,28.1l1.6,1.5
		l-3.2,3l-3-3V9.4l4.6-4.5V28.1z M185.3,4.3v12.8l4.6-4.5l3.4,3.4v16.2l-4.3,4.2H189V18.2l-1.7-1.6l-1.9,1.7v9.6l1.7,1.6v0.1
		l-3.1,3.1l-3-3v-21L185.3,4.3L185.3,4.3z M198.5,4.3L198.5,4.3l3.1,3v0.1l-3.1,3.1l-3.1-3.1L198.5,4.3z M220.1,13.1
		c0.2,0,5.7,6.1,5.8,6.3l-8.4,5.9v2.4l4.7,2.1c0,0,2.5-0.3,3.4-1.1l1.3,0.3c-0.1,0.2-5.8,3.6-6.8,3.6c-0.2,0-4.5-1.6-6.3-2.8V16.4
		C213.9,15.8,220.1,13.1,220.1,13.1z M198.6,12.6L198.6,12.6l2.8,2.7v12.5l1.7,1.6l-3.2,3.1l-3-3V17l-1.4-1.3L198.6,12.6z
		 M217.7,16.1l4,4.1l-4,2.6L217.7,16.1z M168.3,2h0.4c-0.3,0.7-5,3-6.9,5.1c-2.8,3.2-4.7,5-4.4,10.1c0.2,2.9,2.5,7.3,5.2,8.8
		c0.8,0.5,3.5,1.9,5.9,2c3.6,0.2,2.1-0.6,2.7-0.3V6.5c0-0.3-0.6-1.7-1.3-1.7c-0.2,0-0.4,0.3-0.4,0.5v14.7c0,0.5-0.5,1.3-3,3
		c-2.5,1.7-3.3,2.3-3.6,2.2c0.1-0.2,0.5-0.7,0.6-0.9V9.1c0-1.5,2.2-2.4,4.1-3.9c3.2-2.4,4.9-3,4.9-3h0.8c2.1,0,3.4,2.6,3.7,2.8
		c0,0,0.6,0.2,0.8,0.4h1.2c0.4,0,1.2-0.5,1.8-0.4c-1.4,1.2-6,4.1-6.1,4.1H174c-0.3,0-0.8-0.5-1.4-0.8v19.2c0.2,0,0.2,0,0.4,0
		c0.9,0,4.1-2.3,4.2-2.6h0.3v0.6c0,0-1.3,2.4-1.3,2.5c-2.7,3.1-5.8,4.7-10.2,4.7c-7.7,0.1-13.1-5.5-13.7-14.2
		c-0.6-8.6,5.5-15.7,12.6-16.1c1-0.1,2.3,0,2.5,0C167.2,2.6,168.2,2.1,168.3,2z"/>
</g>
</svg>
