<?xml version="1.0" encoding="utf-8"?>
<!-- Generator: Adobe Illustrator 18.0.0, SVG Export Plug-In . SVG Version: 6.00 Build 0)  -->
<!DOCTYPE svg PUBLIC "-//W3C//DTD SVG 1.1//EN" "http://www.w3.org/Graphics/SVG/1.1/DTD/svg11.dtd">
<svg version="1.1" id="Layer_1" xmlns="http://www.w3.org/2000/svg" xmlns:xlink="http://www.w3.org/1999/xlink" x="0px" y="0px"
	 viewBox="0 0 200.5 42.7" enable-background="new 0 0 200.5 42.7" xml:space="preserve">
<g>
	<path fill="#FFFFFF" d="M21.8,42.6c11.7,0,22-9.6,22-21.4C43.8,9.5,33,0.1,21.4,0.1C9.7,0.1,1.5,9.5,1.5,21.3
		C1.5,33,10.1,42.6,21.8,42.6"/>
	<path fill="#00619D" d="M53.4,14.4c0.3,0.1,0.7,0.1,1.2,0.1c1.4,0,2.7-0.5,2.7-2.1c0-1.4-1.3-2-2.8-2h-1.1V14.4z M53.4,8.7h1.2
		C56.2,8.7,57,8,57,6.9c0-1.2-0.9-1.7-2.3-1.7c-0.7,0-1,0-1.3,0.1V8.7z M51.2,3.8c0.7-0.1,2-0.3,3.3-0.3c1.7,0,2.7,0.2,3.5,0.8
		c0.8,0.5,1.3,1.3,1.3,2.3c0,1.1-0.7,2.2-2.1,2.7v0c1.3,0.3,2.5,1.4,2.5,3.1c0,1.1-0.5,1.9-1.2,2.5c-0.9,0.8-2.3,1.1-4.6,1.1
		c-1.3,0-2.2-0.1-2.8-0.2V3.8z"/>
	<path fill="#00619D" d="M66,11.6c-1.6,0-3.1,0.3-3.1,1.7c0,0.9,0.6,1.3,1.3,1.3c0.9,0,1.5-0.6,1.8-1.2c0-0.2,0.1-0.3,0.1-0.5V11.6z
		 M68.2,13.8c0,0.8,0,1.6,0.1,2.1h-2l-0.2-1h-0.1c-0.5,0.7-1.5,1.2-2.6,1.2c-1.8,0-2.8-1.3-2.8-2.7c0-2.3,2-3.4,5.3-3.4V10
		c0-0.6-0.2-1.6-1.8-1.6c-0.9,0-1.8,0.3-2.4,0.7l-0.4-1.5c0.7-0.4,1.8-0.8,3.2-0.8c2.9,0,3.7,1.8,3.7,3.8V13.8z"/>
	<path fill="#00619D" d="M70.2,9.7c0-1,0-1.9-0.1-2.7h2l0.1,1.3h0.1c0.4-0.7,1.4-1.5,2.8-1.5c1.6,0,3.2,1,3.2,3.8V16H76v-5
		c0-1.3-0.5-2.3-1.7-2.3c-0.9,0-1.5,0.6-1.8,1.3c-0.1,0.2-0.1,0.5-0.1,0.7V16h-2.3V9.7z"/>
	<path fill="#00619D" d="M86.8,15.7c-0.5,0.2-1.4,0.5-2.5,0.5c-2.8,0-4.6-1.8-4.6-4.6c0-2.7,1.8-4.7,5-4.7c0.8,0,1.7,0.2,2.2,0.4
		L86.4,9c-0.4-0.2-0.9-0.3-1.7-0.3C83,8.6,82,9.9,82,11.5c0,1.8,1.2,2.9,2.7,2.9c0.8,0,1.3-0.2,1.8-0.4L86.8,15.7z"/>
	<path fill="#00619D" d="M91.8,14.6c1.3,0,2.2-1.2,2.2-3c0-1.4-0.6-3-2.2-3c-1.6,0-2.2,1.5-2.2,3C89.6,13.3,90.5,14.6,91.8,14.6
		L91.8,14.6z M91.8,16.2c-2.5,0-4.5-1.7-4.5-4.6c0-2.9,1.9-4.7,4.6-4.7c2.7,0,4.4,1.9,4.4,4.6C96.4,14.7,94.1,16.2,91.8,16.2
		L91.8,16.2z"/>
	<rect x="51.2" y="19.6" fill="#019949" width="3.6" height="19.5"/>
	<path fill="#019949" d="M57.2,29.2c0-1.6-0.1-3-0.1-4.2h3.1l0.2,2.1h0.1c0.6-1.1,2.1-2.4,4.5-2.4c2.5,0,5,1.6,5,6v8.4h-3.6v-7.9
		c0-2-0.7-3.6-2.7-3.6c-1.4,0-2.4,1-2.8,2.1c-0.1,0.3-0.2,0.7-0.2,1.1v8.3h-3.6V29.2z"/>
	<path fill="#019949" d="M76.7,21.4V25h3.4v2.6h-3.4v6.2c0,1.7,0.5,2.6,1.8,2.6c0.6,0,1,0,1.4-0.2L80,39c-0.5,0.2-1.5,0.4-2.6,0.4
		c-1.3,0-2.4-0.4-3.1-1.2c-0.8-0.8-1.1-2.1-1.1-3.9v-6.6h-2V25h2v-2.6L76.7,21.4z"/>
	<path fill="#019949" d="M90.4,30.6c0-1.3-0.6-3.4-2.9-3.4c-2.2,0-3.1,2-3.3,3.4H90.4z M84.2,33.1c0.1,2.5,2.1,3.7,4.3,3.7
		c1.6,0,2.8-0.3,3.9-0.7l0.5,2.4C91.7,39,90,39.4,88,39.4c-4.6,0-7.2-2.8-7.2-7.1c0-3.9,2.4-7.6,6.9-7.6c4.6,0,6.1,3.8,6.1,6.8
		c0,0.7-0.1,1.2-0.1,1.5H84.2z"/>
	<path fill="#019949" d="M95.6,29.6c0-1.9,0-3.3-0.1-4.5h3.1l0.1,2.7h0.1c0.7-2,2.3-3,3.8-3c0.3,0,0.6,0,0.8,0.1v3.3
		c-0.3-0.1-0.6-0.1-1-0.1c-1.7,0-2.9,1.1-3.2,2.7c-0.1,0.3-0.1,0.7-0.1,1.1v7.3h-3.6V29.6z"/>
	<path fill="#019949" d="M105.3,29.2c0-1.6-0.1-3-0.1-4.2h3.1l0.2,2.1h0.1c0.6-1.1,2.1-2.4,4.5-2.4c2.5,0,5,1.6,5,6v8.4h-3.6v-7.9
		c0-2-0.7-3.6-2.7-3.6c-1.4,0-2.4,1-2.8,2.1c-0.1,0.3-0.2,0.7-0.2,1.1v8.3h-3.6V29.2z"/>
	<path fill="#019949" d="M128.1,32.2c-2.5,0-4.9,0.5-4.9,2.6c0,1.4,0.9,2,2,2c1.4,0,2.4-0.9,2.8-1.9c0.1-0.2,0.1-0.5,0.1-0.8V32.2z
		 M131.6,35.7c0,1.3,0.1,2.5,0.2,3.4h-3.2l-0.2-1.6h-0.1c-0.9,1.1-2.3,1.9-4.1,1.9c-2.9,0-4.4-2-4.4-4.2c0-3.5,3.2-5.3,8.3-5.3v-0.2
		c0-0.9-0.4-2.5-2.9-2.5c-1.4,0-2.8,0.4-3.8,1l-0.7-2.3c1.1-0.6,2.9-1.2,5.1-1.2c4.5,0,5.8,2.8,5.8,5.9V35.7z"/>
	<path fill="#019949" d="M144.6,38.7c-0.7,0.3-2.2,0.7-4,0.7c-4.4,0-7.3-2.8-7.3-7.2c0-4.2,2.9-7.5,7.8-7.5c1.3,0,2.6,0.3,3.4,0.6
		L144,28c-0.6-0.3-1.4-0.6-2.7-0.6c-2.7,0-4.3,2-4.3,4.6c0,2.9,1.9,4.5,4.3,4.5c1.2,0,2.1-0.3,2.8-0.6L144.6,38.7z"/>
	<path fill="#019949" d="M146.3,25h3.6v14.1h-3.6V25z M148,22.9c-1.2,0-2.1-0.9-2.1-2c0-1.1,0.8-2,2.1-2c1.3,0,2.1,0.9,2.1,2
		C150.2,22,149.4,22.9,148,22.9L148,22.9z"/>
	<path fill="#019949" d="M159,36.8c2,0,3.5-2,3.5-4.8c0-2.2-1-4.7-3.4-4.7c-2.5,0-3.5,2.4-3.5,4.8C155.5,34.8,156.8,36.8,159,36.8
		L159,36.8z M158.9,39.4c-4,0-7-2.7-7-7.2c0-4.6,3-7.5,7.3-7.5c4.2,0,7,2.9,7,7.2C166.1,37.1,162.5,39.4,158.9,39.4L158.9,39.4z"/>
	<path fill="#019949" d="M168,29.2c0-1.6-0.1-3-0.1-4.2h3.1l0.2,2.1h0.1c0.6-1.1,2.1-2.4,4.5-2.4c2.5,0,5,1.6,5,6v8.4h-3.6v-7.9
		c0-2-0.7-3.6-2.7-3.6c-1.4,0-2.4,1-2.8,2.1c-0.1,0.3-0.2,0.7-0.2,1.1v8.3H168V29.2z"/>
	<path fill="#019949" d="M191.1,32.2c-2.5,0-4.9,0.5-4.9,2.6c0,1.4,0.9,2,2,2c1.4,0,2.4-0.9,2.8-1.9c0.1-0.2,0.1-0.5,0.1-0.8V32.2z
		 M194.6,35.7c0,1.3,0.1,2.5,0.2,3.4h-3.2l-0.2-1.6h-0.1c-0.9,1.1-2.3,1.9-4.1,1.9c-2.9,0-4.4-2-4.4-4.2c0-3.5,3.2-5.3,8.3-5.3v-0.2
		c0-0.9-0.4-2.5-2.9-2.5c-1.4,0-2.8,0.4-3.8,1l-0.7-2.3c1.1-0.6,2.9-1.2,5.1-1.2c4.5,0,5.8,2.8,5.8,5.9V35.7z"/>
	<rect x="196.9" y="18.6" fill="#019949" width="3.6" height="20.5"/>
	<path fill="#019949" d="M32.4,18.3c0.1,0.9,0.1,1.9,0.1,2.8c0.2,11.7-5.2,21.3-12,21.5c-0.1,0-0.2,0-0.4,0c1.3,0.1,2.5,0.1,3.8,0
		c11-0.9,19.3-9.4,20.1-19.7c0-0.4,0-0.9-0.1-1.3c-0.5-2.9-3.3-5.2-7.5-6.5c-0.3-0.1-0.6-0.2-1-0.2c-1.7,0-3.2,1.4-3.2,3
		C32.4,18.1,32.4,18.2,32.4,18.3"/>
	<path fill="#019949" d="M37.9,11.5c2.8,1.2,5,3.3,5.9,6.1C41.8,6.8,31.6-0.9,20.1,0.1c-0.2,0-0.3,0-0.5,0c0.1,0,0.2,0,0.3,0
		c4-0.1,7.6,3.2,10,8.3c0.5,1,1.5,1.7,2.6,1.8C34.5,10.4,36.4,10.8,37.9,11.5"/>
	<path fill="#00619D" d="M28.2,22.3c0.1,0.7,0.1,1.4,0.1,2.1c0,4.6-1.1,8.9-3,12.8c-1.6,3.2-3.7,5.2-6,5.2c-0.2,0-0.4,0-0.6,0
		C8.9,41,1,33.2,0.1,23.2c-1-10.9,6.7-20.7,17.6-22.8c0.2,0,0.5-0.1,0.8-0.1c1.9,0,3.7,1.2,5.2,3.3c0.6,0.8,0.9,1.8,0.9,2.9
		c0,2.3-1.6,4.3-3.8,4.9c-0.7,0.2-1.4,0.4-2.1,0.7C12.2,14.4,7.1,18.1,4.3,22C7.2,19,12,16.5,18,15.1c0.6-0.2,1.3-0.2,2-0.2
		C24.3,14.8,27.9,18.1,28.2,22.3"/>
</g>
</svg>
