<?xml version="1.0" encoding="utf-8"?>
<!-- Generator: Adobe Illustrator 18.0.0, SVG Export Plug-In . SVG Version: 6.00 Build 0)  -->
<!DOCTYPE svg PUBLIC "-//W3C//DTD SVG 1.1//EN" "http://www.w3.org/Graphics/SVG/1.1/DTD/svg11.dtd">
<svg version="1.1" id="Layer_1" xmlns="http://www.w3.org/2000/svg" xmlns:xlink="http://www.w3.org/1999/xlink" x="0px" y="0px"
	 viewBox="0 0 197.5 61.3" enable-background="new 0 0 197.5 61.3" xml:space="preserve">
<g>
	<path id="A_2_" fill-rule="evenodd" clip-rule="evenodd" fill="#2E368F" d="M171.5,0c4.8,0,5.7,1.2,7.4,6.2l18.6,55h-16.6l-4-13.2
		h-22.3l-4,13.2H141L159.8,0L171.5,0L171.5,0z M174.1,39.1h-16.9l8.4-28L174.1,39.1L174.1,39.1z"/>
	<path id="V_2_" fill-rule="evenodd" clip-rule="evenodd" fill="#2E368F" d="M138.5,0h9.7l-18.7,61.3l-14.7,0L94.8,0l10.8,0
		c4.2,0,5.3,1.1,7.5,8l11.6,38.5L138.5,0L138.5,0z"/>
	<path id="B2_2_" fill-rule="evenodd" clip-rule="evenodd" fill="#2E368F" d="M77.6,61.3H51.9V0h26.7C91,0,95.4,10.2,89.1,19.6
		l-3,4.4C107.1,34.9,100.2,61.3,77.6,61.3L77.6,61.3z M74.5,27l5.1-7.6c1.3-1.9,1.6-3.1,1.6-4.5c0-3.7-3.3-6.9-7.1-6.9h-7.9v45.1
		h4.4c7.3,0,12.8-3.9,12.8-13.1C83.4,32.3,79.9,28.3,74.5,27L74.5,27z"/>
	<path id="B1_2_" fill-rule="evenodd" clip-rule="evenodd" fill="#2E368F" d="M25.7,61.3H0V0h26.7c12.5,0,16.9,10.2,10.5,19.6
		l-3,4.4C55.2,34.9,48.4,61.3,25.7,61.3L25.7,61.3z M22.7,27l5.1-7.6c1.3-1.9,1.6-3.1,1.6-4.5c0-3.7-3.3-6.9-7.1-6.9h-7.9v45.1h4.4
		c7.3,0,12.8-3.9,12.8-13.1C31.6,32.3,28,28.3,22.7,27L22.7,27z"/>
</g>
</svg>
